solid OpenSCAD_Model
  facet normal 0.831485 0.555547 0
    outer loop
      vertex -22.1903 4.45671 3.1
      vertex -22.7322 5.26777 0.849999
      vertex -22.7322 5.26777 3.1
    endloop
  endfacet
  facet normal 0.831485 0.555547 0
    outer loop
      vertex -22.7322 5.26777 0.849999
      vertex -22.1903 4.45671 3.1
      vertex -22.1903 4.45671 0.849999
    endloop
  endfacet
  facet normal 0.980786 0.195089 0
    outer loop
      vertex -22 3.5 3.1
      vertex -22.1903 4.45671 0.849999
      vertex -22.1903 4.45671 3.1
    endloop
  endfacet
  facet normal 0.980786 0.195089 0
    outer loop
      vertex -22.1903 4.45671 0.849999
      vertex -22 3.5 3.1
      vertex -22 3.5 0.849999
    endloop
  endfacet
  facet normal 0.555549 0.831484 -0
    outer loop
      vertex -22.7322 5.26777 0.849999
      vertex -23.5433 5.8097 3.1
      vertex -22.7322 5.26777 3.1
    endloop
  endfacet
  facet normal 0.555549 0.831484 0
    outer loop
      vertex -23.5433 5.8097 3.1
      vertex -22.7322 5.26777 0.849999
      vertex -23.5433 5.8097 0.849999
    endloop
  endfacet
  facet normal 0.831485 -0.555547 0
    outer loop
      vertex -22.7322 1.73223 3.1
      vertex -22.1903 2.54329 0.849999
      vertex -22.1903 2.54329 3.1
    endloop
  endfacet
  facet normal 0.831485 -0.555547 0
    outer loop
      vertex -22.1903 2.54329 0.849999
      vertex -22.7322 1.73223 3.1
      vertex -22.7322 1.73223 0.849999
    endloop
  endfacet
  facet normal -0.195091 0.980785 0
    outer loop
      vertex -24.5 6 0.849999
      vertex -25.4567 5.8097 3.1
      vertex -24.5 6 3.1
    endloop
  endfacet
  facet normal -0.195091 0.980785 0
    outer loop
      vertex -25.4567 5.8097 3.1
      vertex -24.5 6 0.849999
      vertex -25.4567 5.8097 0.849999
    endloop
  endfacet
  facet normal -0.831485 0.555547 0
    outer loop
      vertex -26.8097 4.45671 0.849999
      vertex -26.2678 5.26777 3.1
      vertex -26.2678 5.26777 0.849999
    endloop
  endfacet
  facet normal -0.831485 0.555547 0
    outer loop
      vertex -26.2678 5.26777 3.1
      vertex -26.8097 4.45671 0.849999
      vertex -26.8097 4.45671 3.1
    endloop
  endfacet
  facet normal -0.980786 0.195089 0
    outer loop
      vertex -27 3.5 0.849999
      vertex -26.8097 4.45671 3.1
      vertex -26.8097 4.45671 0.849999
    endloop
  endfacet
  facet normal -0.980786 0.195089 0
    outer loop
      vertex -26.8097 4.45671 3.1
      vertex -27 3.5 0.849999
      vertex -27 3.5 3.1
    endloop
  endfacet
  facet normal 0.195091 -0.980785 0
    outer loop
      vertex -24.5 1 0.849999
      vertex -23.5433 1.1903 3.1
      vertex -24.5 1 3.1
    endloop
  endfacet
  facet normal 0.195091 -0.980785 0
    outer loop
      vertex -23.5433 1.1903 3.1
      vertex -24.5 1 0.849999
      vertex -23.5433 1.1903 0.849999
    endloop
  endfacet
  facet normal -0.195091 -0.980785 0
    outer loop
      vertex -25.4567 1.1903 3.1
      vertex -24.5 1 0.849999
      vertex -24.5 1 3.1
    endloop
  endfacet
  facet normal -0.195091 -0.980785 0
    outer loop
      vertex -25.4567 1.1903 0.0999994
      vertex -24.5 1 0.849999
      vertex -25.4567 1.1903 3.1
    endloop
  endfacet
  facet normal -0.195091 -0.980785 -0
    outer loop
      vertex -24.5 1 0.849999
      vertex -25.4567 1.1903 0.0999994
      vertex -24.5 1 0.0999994
    endloop
  endfacet
  facet normal -0.980786 -0.195089 0
    outer loop
      vertex -26.8097 2.54329 0.0999994
      vertex -27 3.5 0.849999
      vertex -27 3.5 0.0999994
    endloop
  endfacet
  facet normal -0.980786 -0.195089 -0
    outer loop
      vertex -26.8097 2.54329 3.1
      vertex -27 3.5 0.849999
      vertex -26.8097 2.54329 0.0999994
    endloop
  endfacet
  facet normal -0.980786 -0.195089 0
    outer loop
      vertex -27 3.5 0.849999
      vertex -26.8097 2.54329 3.1
      vertex -27 3.5 3.1
    endloop
  endfacet
  facet normal 0.195091 0.980785 -0
    outer loop
      vertex -23.5433 5.8097 0.849999
      vertex -24.5 6 3.1
      vertex -23.5433 5.8097 3.1
    endloop
  endfacet
  facet normal 0.195091 0.980785 0
    outer loop
      vertex -24.5 6 3.1
      vertex -23.5433 5.8097 0.849999
      vertex -24.5 6 0.849999
    endloop
  endfacet
  facet normal 0.980786 -0.195089 0
    outer loop
      vertex -22.1903 2.54329 3.1
      vertex -22 3.5 0.849999
      vertex -22 3.5 3.1
    endloop
  endfacet
  facet normal 0.980786 -0.195089 0
    outer loop
      vertex -22 3.5 0.849999
      vertex -22.1903 2.54329 3.1
      vertex -22.1903 2.54329 0.849999
    endloop
  endfacet
  facet normal 0.555549 -0.831484 0
    outer loop
      vertex -23.5433 1.1903 0.849999
      vertex -22.7322 1.73223 3.1
      vertex -23.5433 1.1903 3.1
    endloop
  endfacet
  facet normal 0.555549 -0.831484 0
    outer loop
      vertex -22.7322 1.73223 3.1
      vertex -23.5433 1.1903 0.849999
      vertex -22.7322 1.73223 0.849999
    endloop
  endfacet
  facet normal -0.831485 -0.555547 0
    outer loop
      vertex -26.2678 1.73223 0.0999994
      vertex -26.8097 2.54329 3.1
      vertex -26.8097 2.54329 0.0999994
    endloop
  endfacet
  facet normal -0.831485 -0.555547 0
    outer loop
      vertex -26.8097 2.54329 3.1
      vertex -26.2678 1.73223 0.0999994
      vertex -26.2678 1.73223 3.1
    endloop
  endfacet
  facet normal -0.555549 0.831484 0
    outer loop
      vertex -25.4567 5.8097 0.849999
      vertex -26.2678 5.26777 3.1
      vertex -25.4567 5.8097 3.1
    endloop
  endfacet
  facet normal -0.555549 0.831484 0
    outer loop
      vertex -26.2678 5.26777 3.1
      vertex -25.4567 5.8097 0.849999
      vertex -26.2678 5.26777 0.849999
    endloop
  endfacet
  facet normal -0.555549 -0.831484 0
    outer loop
      vertex -26.2678 1.73223 0.0999994
      vertex -25.4567 1.1903 3.1
      vertex -26.2678 1.73223 3.1
    endloop
  endfacet
  facet normal -0.555549 -0.831484 -0
    outer loop
      vertex -25.4567 1.1903 3.1
      vertex -26.2678 1.73223 0.0999994
      vertex -25.4567 1.1903 0.0999994
    endloop
  endfacet
  facet normal 0 0 1
    outer loop
      vertex -23 3.5 3.1
      vertex -22 3.5 3.1
      vertex -22.1903 4.45671 3.1
    endloop
  endfacet
  facet normal 0 0 1
    outer loop
      vertex -23.1142 4.07402 3.1
      vertex -22.1903 4.45671 3.1
      vertex -22.7322 5.26777 3.1
    endloop
  endfacet
  facet normal 0 0 1
    outer loop
      vertex -22 3.5 3.1
      vertex -23 3.5 3.1
      vertex -22.1903 2.54329 3.1
    endloop
  endfacet
  facet normal -0 0 1
    outer loop
      vertex -23.1142 2.92597 3.1
      vertex -22.1903 2.54329 3.1
      vertex -23 3.5 3.1
    endloop
  endfacet
  facet normal 0 0 1
    outer loop
      vertex -22.1903 4.45671 3.1
      vertex -23.1142 4.07402 3.1
      vertex -23 3.5 3.1
    endloop
  endfacet
  facet normal 0 0 1
    outer loop
      vertex -22.7322 5.26777 3.1
      vertex -23.4393 4.56066 3.1
      vertex -23.1142 4.07402 3.1
    endloop
  endfacet
  facet normal 0 0 1
    outer loop
      vertex -23.5433 5.8097 3.1
      vertex -23.4393 4.56066 3.1
      vertex -22.7322 5.26777 3.1
    endloop
  endfacet
  facet normal 0 0 1
    outer loop
      vertex -23.5433 5.8097 3.1
      vertex -23.926 4.88582 3.1
      vertex -23.4393 4.56066 3.1
    endloop
  endfacet
  facet normal 0 0 1
    outer loop
      vertex -24.5 6 3.1
      vertex -23.926 4.88582 3.1
      vertex -23.5433 5.8097 3.1
    endloop
  endfacet
  facet normal 0 0 1
    outer loop
      vertex -24.5 6 3.1
      vertex -24.5 5 3.1
      vertex -23.926 4.88582 3.1
    endloop
  endfacet
  facet normal 0 0 1
    outer loop
      vertex -24.5 6 3.1
      vertex -25.074 4.88582 3.1
      vertex -24.5 5 3.1
    endloop
  endfacet
  facet normal -0 0 1
    outer loop
      vertex -25.4567 5.8097 3.1
      vertex -25.074 4.88582 3.1
      vertex -24.5 6 3.1
    endloop
  endfacet
  facet normal 0 0 1
    outer loop
      vertex -25.4567 5.8097 3.1
      vertex -25.5607 4.56066 3.1
      vertex -25.074 4.88582 3.1
    endloop
  endfacet
  facet normal -0 0 1
    outer loop
      vertex -26.2678 5.26777 3.1
      vertex -25.5607 4.56066 3.1
      vertex -25.4567 5.8097 3.1
    endloop
  endfacet
  facet normal -0 0 1
    outer loop
      vertex -26.8097 4.45671 3.1
      vertex -25.8858 4.07402 3.1
      vertex -26.2678 5.26777 3.1
    endloop
  endfacet
  facet normal 0 0 1
    outer loop
      vertex -25.5607 4.56066 3.1
      vertex -26.2678 5.26777 3.1
      vertex -25.8858 4.07402 3.1
    endloop
  endfacet
  facet normal 0 0 1
    outer loop
      vertex -22.1903 2.54329 3.1
      vertex -23.1142 2.92597 3.1
      vertex -22.7322 1.73223 3.1
    endloop
  endfacet
  facet normal -0 0 1
    outer loop
      vertex -23.4393 2.43934 3.1
      vertex -22.7322 1.73223 3.1
      vertex -23.1142 2.92597 3.1
    endloop
  endfacet
  facet normal 0 0 1
    outer loop
      vertex -23.4393 2.43934 3.1
      vertex -23.5433 1.1903 3.1
      vertex -22.7322 1.73223 3.1
    endloop
  endfacet
  facet normal -0 0 1
    outer loop
      vertex -23.926 2.11418 3.1
      vertex -23.5433 1.1903 3.1
      vertex -23.4393 2.43934 3.1
    endloop
  endfacet
  facet normal -0 0 1
    outer loop
      vertex -24.5 2 3.1
      vertex -23.5433 1.1903 3.1
      vertex -23.926 2.11418 3.1
    endloop
  endfacet
  facet normal 0 0 1
    outer loop
      vertex -24.5 2 3.1
      vertex -24.5 1 3.1
      vertex -23.5433 1.1903 3.1
    endloop
  endfacet
  facet normal 0 0 1
    outer loop
      vertex -25.074 2.11418 3.1
      vertex -24.5 1 3.1
      vertex -24.5 2 3.1
    endloop
  endfacet
  facet normal 0 0 1
    outer loop
      vertex -25.074 2.11418 3.1
      vertex -25.4567 1.1903 3.1
      vertex -24.5 1 3.1
    endloop
  endfacet
  facet normal 0 0 1
    outer loop
      vertex -25.5607 2.43934 3.1
      vertex -25.4567 1.1903 3.1
      vertex -25.074 2.11418 3.1
    endloop
  endfacet
  facet normal 0 0 1
    outer loop
      vertex -26.2678 1.73223 3.1
      vertex -25.5607 2.43934 3.1
      vertex -25.8858 2.92597 3.1
    endloop
  endfacet
  facet normal 0 0 1
    outer loop
      vertex -25.5607 2.43934 3.1
      vertex -26.2678 1.73223 3.1
      vertex -25.4567 1.1903 3.1
    endloop
  endfacet
  facet normal 0 0 1
    outer loop
      vertex -26.8097 2.54329 3.1
      vertex -25.8858 2.92597 3.1
      vertex -26 3.5 3.1
    endloop
  endfacet
  facet normal 0 0 1
    outer loop
      vertex -25.8858 4.07402 3.1
      vertex -26.8097 4.45671 3.1
      vertex -26 3.5 3.1
    endloop
  endfacet
  facet normal 0 0 1
    outer loop
      vertex -27 3.5 3.1
      vertex -26 3.5 3.1
      vertex -26.8097 4.45671 3.1
    endloop
  endfacet
  facet normal 0 0 1
    outer loop
      vertex -25.8858 2.92597 3.1
      vertex -26.8097 2.54329 3.1
      vertex -26.2678 1.73223 3.1
    endloop
  endfacet
  facet normal 0 0 1
    outer loop
      vertex -26 3.5 3.1
      vertex -27 3.5 3.1
      vertex -26.8097 2.54329 3.1
    endloop
  endfacet
  facet normal 0.831485 0.555547 0
    outer loop
      vertex 26.8097 4.45671 3.1
      vertex 26.2678 5.26777 0.849999
      vertex 26.2678 5.26777 3.1
    endloop
  endfacet
  facet normal 0.831485 0.555547 0
    outer loop
      vertex 26.2678 5.26777 0.849999
      vertex 26.8097 4.45671 3.1
      vertex 26.8097 4.45671 0.849999
    endloop
  endfacet
  facet normal 0.980786 0.195089 0
    outer loop
      vertex 27 3.5 3.1
      vertex 26.8097 4.45671 0.849999
      vertex 26.8097 4.45671 3.1
    endloop
  endfacet
  facet normal 0.980786 0.195089 0
    outer loop
      vertex 26.8097 4.45671 0.849999
      vertex 27 3.5 3.1
      vertex 27 3.5 0.849999
    endloop
  endfacet
  facet normal 0.555549 0.831484 -0
    outer loop
      vertex 26.2678 5.26777 0.849999
      vertex 25.4567 5.8097 3.1
      vertex 26.2678 5.26777 3.1
    endloop
  endfacet
  facet normal 0.555549 0.831484 0
    outer loop
      vertex 25.4567 5.8097 3.1
      vertex 26.2678 5.26777 0.849999
      vertex 25.4567 5.8097 0.849999
    endloop
  endfacet
  facet normal 0.831485 -0.555547 0
    outer loop
      vertex 26.2678 1.73223 3.1
      vertex 26.8097 2.54329 0.0999994
      vertex 26.8097 2.54329 3.1
    endloop
  endfacet
  facet normal 0.831485 -0.555547 0
    outer loop
      vertex 26.8097 2.54329 0.0999994
      vertex 26.2678 1.73223 3.1
      vertex 26.2678 1.73223 0.0999994
    endloop
  endfacet
  facet normal -0.195091 0.980785 0
    outer loop
      vertex 24.5 6 0.849999
      vertex 23.5433 5.8097 3.1
      vertex 24.5 6 3.1
    endloop
  endfacet
  facet normal -0.195091 0.980785 0
    outer loop
      vertex 23.5433 5.8097 3.1
      vertex 24.5 6 0.849999
      vertex 23.5433 5.8097 0.849999
    endloop
  endfacet
  facet normal -0.831485 0.555547 0
    outer loop
      vertex 22.1903 4.45671 0.849999
      vertex 22.7322 5.26777 3.1
      vertex 22.7322 5.26777 0.849999
    endloop
  endfacet
  facet normal -0.831485 0.555547 0
    outer loop
      vertex 22.7322 5.26777 3.1
      vertex 22.1903 4.45671 0.849999
      vertex 22.1903 4.45671 3.1
    endloop
  endfacet
  facet normal -0.980786 0.195089 0
    outer loop
      vertex 22 3.5 0.849999
      vertex 22.1903 4.45671 3.1
      vertex 22.1903 4.45671 0.849999
    endloop
  endfacet
  facet normal -0.980786 0.195089 0
    outer loop
      vertex 22.1903 4.45671 3.1
      vertex 22 3.5 0.849999
      vertex 22 3.5 3.1
    endloop
  endfacet
  facet normal 0.195091 -0.980785 0
    outer loop
      vertex 24.5 1 0.849999
      vertex 25.4567 1.1903 3.1
      vertex 24.5 1 3.1
    endloop
  endfacet
  facet normal 0.195091 -0.980785 0
    outer loop
      vertex 25.4567 1.1903 0.0999994
      vertex 24.5 1 0.849999
      vertex 24.5 1 0.0999994
    endloop
  endfacet
  facet normal 0.195091 -0.980785 0
    outer loop
      vertex 24.5 1 0.849999
      vertex 25.4567 1.1903 0.0999994
      vertex 25.4567 1.1903 3.1
    endloop
  endfacet
  facet normal -0.195091 -0.980785 0
    outer loop
      vertex 23.5433 1.1903 0.849999
      vertex 24.5 1 3.1
      vertex 23.5433 1.1903 3.1
    endloop
  endfacet
  facet normal -0.195091 -0.980785 -0
    outer loop
      vertex 24.5 1 3.1
      vertex 23.5433 1.1903 0.849999
      vertex 24.5 1 0.849999
    endloop
  endfacet
  facet normal -0.980786 -0.195089 0
    outer loop
      vertex 22.1903 2.54329 0.849999
      vertex 22 3.5 3.1
      vertex 22 3.5 0.849999
    endloop
  endfacet
  facet normal -0.980786 -0.195089 0
    outer loop
      vertex 22 3.5 3.1
      vertex 22.1903 2.54329 0.849999
      vertex 22.1903 2.54329 3.1
    endloop
  endfacet
  facet normal 0.195091 0.980785 -0
    outer loop
      vertex 25.4567 5.8097 0.849999
      vertex 24.5 6 3.1
      vertex 25.4567 5.8097 3.1
    endloop
  endfacet
  facet normal 0.195091 0.980785 0
    outer loop
      vertex 24.5 6 3.1
      vertex 25.4567 5.8097 0.849999
      vertex 24.5 6 0.849999
    endloop
  endfacet
  facet normal 0.980786 -0.195089 0
    outer loop
      vertex 26.8097 2.54329 3.1
      vertex 27 3.5 0.849999
      vertex 27 3.5 3.1
    endloop
  endfacet
  facet normal 0.980786 -0.195089 0
    outer loop
      vertex 26.8097 2.54329 0.0999994
      vertex 27 3.5 0.849999
      vertex 26.8097 2.54329 3.1
    endloop
  endfacet
  facet normal 0.980786 -0.195089 0
    outer loop
      vertex 27 3.5 0.849999
      vertex 26.8097 2.54329 0.0999994
      vertex 27 3.5 0.0999994
    endloop
  endfacet
  facet normal 0.555549 -0.831484 0
    outer loop
      vertex 25.4567 1.1903 0.0999994
      vertex 26.2678 1.73223 3.1
      vertex 25.4567 1.1903 3.1
    endloop
  endfacet
  facet normal 0.555549 -0.831484 0
    outer loop
      vertex 26.2678 1.73223 3.1
      vertex 25.4567 1.1903 0.0999994
      vertex 26.2678 1.73223 0.0999994
    endloop
  endfacet
  facet normal -0.831485 -0.555547 0
    outer loop
      vertex 22.7322 1.73223 0.849999
      vertex 22.1903 2.54329 3.1
      vertex 22.1903 2.54329 0.849999
    endloop
  endfacet
  facet normal -0.831485 -0.555547 0
    outer loop
      vertex 22.1903 2.54329 3.1
      vertex 22.7322 1.73223 0.849999
      vertex 22.7322 1.73223 3.1
    endloop
  endfacet
  facet normal -0.555549 0.831484 0
    outer loop
      vertex 23.5433 5.8097 0.849999
      vertex 22.7322 5.26777 3.1
      vertex 23.5433 5.8097 3.1
    endloop
  endfacet
  facet normal -0.555549 0.831484 0
    outer loop
      vertex 22.7322 5.26777 3.1
      vertex 23.5433 5.8097 0.849999
      vertex 22.7322 5.26777 0.849999
    endloop
  endfacet
  facet normal -0.555549 -0.831484 0
    outer loop
      vertex 22.7322 1.73223 0.849999
      vertex 23.5433 1.1903 3.1
      vertex 22.7322 1.73223 3.1
    endloop
  endfacet
  facet normal -0.555549 -0.831484 -0
    outer loop
      vertex 23.5433 1.1903 3.1
      vertex 22.7322 1.73223 0.849999
      vertex 23.5433 1.1903 0.849999
    endloop
  endfacet
  facet normal 0 0 1
    outer loop
      vertex 26 3.5 3.1
      vertex 27 3.5 3.1
      vertex 26.8097 4.45671 3.1
    endloop
  endfacet
  facet normal 0 0 1
    outer loop
      vertex 25.8858 4.07402 3.1
      vertex 26.8097 4.45671 3.1
      vertex 26.2678 5.26777 3.1
    endloop
  endfacet
  facet normal 0 0 1
    outer loop
      vertex 27 3.5 3.1
      vertex 26 3.5 3.1
      vertex 26.8097 2.54329 3.1
    endloop
  endfacet
  facet normal -0 0 1
    outer loop
      vertex 25.8858 2.92597 3.1
      vertex 26.8097 2.54329 3.1
      vertex 26 3.5 3.1
    endloop
  endfacet
  facet normal 0 0 1
    outer loop
      vertex 26.8097 4.45671 3.1
      vertex 25.8858 4.07402 3.1
      vertex 26 3.5 3.1
    endloop
  endfacet
  facet normal 0 0 1
    outer loop
      vertex 26.2678 5.26777 3.1
      vertex 25.5607 4.56066 3.1
      vertex 25.8858 4.07402 3.1
    endloop
  endfacet
  facet normal 0 0 1
    outer loop
      vertex 25.4567 5.8097 3.1
      vertex 25.5607 4.56066 3.1
      vertex 26.2678 5.26777 3.1
    endloop
  endfacet
  facet normal 0 0 1
    outer loop
      vertex 25.4567 5.8097 3.1
      vertex 25.074 4.88582 3.1
      vertex 25.5607 4.56066 3.1
    endloop
  endfacet
  facet normal 0 0 1
    outer loop
      vertex 24.5 6 3.1
      vertex 25.074 4.88582 3.1
      vertex 25.4567 5.8097 3.1
    endloop
  endfacet
  facet normal 0 0 1
    outer loop
      vertex 24.5 6 3.1
      vertex 24.5 5 3.1
      vertex 25.074 4.88582 3.1
    endloop
  endfacet
  facet normal 0 0 1
    outer loop
      vertex 24.5 6 3.1
      vertex 23.926 4.88582 3.1
      vertex 24.5 5 3.1
    endloop
  endfacet
  facet normal -0 0 1
    outer loop
      vertex 23.5433 5.8097 3.1
      vertex 23.926 4.88582 3.1
      vertex 24.5 6 3.1
    endloop
  endfacet
  facet normal 0 0 1
    outer loop
      vertex 23.5433 5.8097 3.1
      vertex 23.4393 4.56066 3.1
      vertex 23.926 4.88582 3.1
    endloop
  endfacet
  facet normal -0 0 1
    outer loop
      vertex 22.7322 5.26777 3.1
      vertex 23.4393 4.56066 3.1
      vertex 23.5433 5.8097 3.1
    endloop
  endfacet
  facet normal -0 0 1
    outer loop
      vertex 22.1903 4.45671 3.1
      vertex 23.1142 4.07402 3.1
      vertex 22.7322 5.26777 3.1
    endloop
  endfacet
  facet normal 0 0 1
    outer loop
      vertex 23.4393 4.56066 3.1
      vertex 22.7322 5.26777 3.1
      vertex 23.1142 4.07402 3.1
    endloop
  endfacet
  facet normal 0 0 1
    outer loop
      vertex 26.8097 2.54329 3.1
      vertex 25.8858 2.92597 3.1
      vertex 26.2678 1.73223 3.1
    endloop
  endfacet
  facet normal -0 0 1
    outer loop
      vertex 25.5607 2.43934 3.1
      vertex 26.2678 1.73223 3.1
      vertex 25.8858 2.92597 3.1
    endloop
  endfacet
  facet normal 0 0 1
    outer loop
      vertex 25.5607 2.43934 3.1
      vertex 25.4567 1.1903 3.1
      vertex 26.2678 1.73223 3.1
    endloop
  endfacet
  facet normal -0 0 1
    outer loop
      vertex 25.074 2.11418 3.1
      vertex 25.4567 1.1903 3.1
      vertex 25.5607 2.43934 3.1
    endloop
  endfacet
  facet normal -0 0 1
    outer loop
      vertex 24.5 2 3.1
      vertex 25.4567 1.1903 3.1
      vertex 25.074 2.11418 3.1
    endloop
  endfacet
  facet normal 0 0 1
    outer loop
      vertex 24.5 2 3.1
      vertex 24.5 1 3.1
      vertex 25.4567 1.1903 3.1
    endloop
  endfacet
  facet normal 0 0 1
    outer loop
      vertex 23.926 2.11418 3.1
      vertex 24.5 1 3.1
      vertex 24.5 2 3.1
    endloop
  endfacet
  facet normal 0 0 1
    outer loop
      vertex 23.926 2.11418 3.1
      vertex 23.5433 1.1903 3.1
      vertex 24.5 1 3.1
    endloop
  endfacet
  facet normal 0 0 1
    outer loop
      vertex 23.4393 2.43934 3.1
      vertex 23.5433 1.1903 3.1
      vertex 23.926 2.11418 3.1
    endloop
  endfacet
  facet normal 0 0 1
    outer loop
      vertex 22.7322 1.73223 3.1
      vertex 23.4393 2.43934 3.1
      vertex 23.1142 2.92597 3.1
    endloop
  endfacet
  facet normal 0 0 1
    outer loop
      vertex 23.4393 2.43934 3.1
      vertex 22.7322 1.73223 3.1
      vertex 23.5433 1.1903 3.1
    endloop
  endfacet
  facet normal 0 0 1
    outer loop
      vertex 22.1903 2.54329 3.1
      vertex 23.1142 2.92597 3.1
      vertex 23 3.5 3.1
    endloop
  endfacet
  facet normal 0 0 1
    outer loop
      vertex 23.1142 4.07402 3.1
      vertex 22.1903 4.45671 3.1
      vertex 23 3.5 3.1
    endloop
  endfacet
  facet normal 0 0 1
    outer loop
      vertex 22 3.5 3.1
      vertex 23 3.5 3.1
      vertex 22.1903 4.45671 3.1
    endloop
  endfacet
  facet normal 0 0 1
    outer loop
      vertex 23.1142 2.92597 3.1
      vertex 22.1903 2.54329 3.1
      vertex 22.7322 1.73223 3.1
    endloop
  endfacet
  facet normal 0 0 1
    outer loop
      vertex 23 3.5 3.1
      vertex 22 3.5 3.1
      vertex 22.1903 2.54329 3.1
    endloop
  endfacet
  facet normal 0.831498 0.555528 0
    outer loop
      vertex -22.1903 62.4567 3.1
      vertex -22.7322 63.2678 0.849999
      vertex -22.7322 63.2678 3.1
    endloop
  endfacet
  facet normal 0.831498 0.555528 0
    outer loop
      vertex -22.7322 63.2678 0.849999
      vertex -22.1903 62.4567 3.1
      vertex -22.1903 62.4567 0.849999
    endloop
  endfacet
  facet normal 0.980785 0.195091 0
    outer loop
      vertex -22 61.5 3.1
      vertex -22.1903 62.4567 0.849999
      vertex -22.1903 62.4567 3.1
    endloop
  endfacet
  facet normal 0.980785 0.195091 0
    outer loop
      vertex -22.1903 62.4567 0.849999
      vertex -22 61.5 3.1
      vertex -22 61.5 0.849999
    endloop
  endfacet
  facet normal 0.555528 0.831498 -0
    outer loop
      vertex -22.7322 63.2678 0.849999
      vertex -23.5433 63.8097 3.1
      vertex -22.7322 63.2678 3.1
    endloop
  endfacet
  facet normal 0.555528 0.831498 0
    outer loop
      vertex -23.5433 63.8097 3.1
      vertex -22.7322 63.2678 0.849999
      vertex -23.5433 63.8097 0.849999
    endloop
  endfacet
  facet normal 0.831498 -0.555528 0
    outer loop
      vertex -22.7322 59.7322 3.1
      vertex -22.1903 60.5433 0.849999
      vertex -22.1903 60.5433 3.1
    endloop
  endfacet
  facet normal 0.831498 -0.555528 0
    outer loop
      vertex -22.1903 60.5433 0.849999
      vertex -22.7322 59.7322 3.1
      vertex -22.7322 59.7322 0.849999
    endloop
  endfacet
  facet normal -0.195091 0.980785 0
    outer loop
      vertex -24.5 64 0.849999
      vertex -25.4567 63.8097 3.1
      vertex -24.5 64 3.1
    endloop
  endfacet
  facet normal -0.195091 0.980785 0
    outer loop
      vertex -25.4567 63.8097 0.0999994
      vertex -24.5 64 0.849999
      vertex -24.5 64 0.0999994
    endloop
  endfacet
  facet normal -0.195091 0.980785 0
    outer loop
      vertex -24.5 64 0.849999
      vertex -25.4567 63.8097 0.0999994
      vertex -25.4567 63.8097 3.1
    endloop
  endfacet
  facet normal -0.831498 0.555528 0
    outer loop
      vertex -26.8097 62.4567 0.0999994
      vertex -26.2678 63.2678 3.1
      vertex -26.2678 63.2678 0.0999994
    endloop
  endfacet
  facet normal -0.831498 0.555528 0
    outer loop
      vertex -26.2678 63.2678 3.1
      vertex -26.8097 62.4567 0.0999994
      vertex -26.8097 62.4567 3.1
    endloop
  endfacet
  facet normal -0.980785 0.195091 0
    outer loop
      vertex -27 61.5 0.849999
      vertex -26.8097 62.4567 0.0999994
      vertex -27 61.5 0.0999994
    endloop
  endfacet
  facet normal -0.980785 0.195091 0
    outer loop
      vertex -26.8097 62.4567 0.0999994
      vertex -27 61.5 0.849999
      vertex -26.8097 62.4567 3.1
    endloop
  endfacet
  facet normal -0.980785 0.195091 0
    outer loop
      vertex -26.8097 62.4567 3.1
      vertex -27 61.5 0.849999
      vertex -27 61.5 3.1
    endloop
  endfacet
  facet normal 0.195091 -0.980785 0
    outer loop
      vertex -24.5 59 0.849999
      vertex -23.5433 59.1903 3.1
      vertex -24.5 59 3.1
    endloop
  endfacet
  facet normal 0.195091 -0.980785 0
    outer loop
      vertex -23.5433 59.1903 3.1
      vertex -24.5 59 0.849999
      vertex -23.5433 59.1903 0.849999
    endloop
  endfacet
  facet normal -0.195091 -0.980785 0
    outer loop
      vertex -25.4567 59.1903 0.849999
      vertex -24.5 59 3.1
      vertex -25.4567 59.1903 3.1
    endloop
  endfacet
  facet normal -0.195091 -0.980785 -0
    outer loop
      vertex -24.5 59 3.1
      vertex -25.4567 59.1903 0.849999
      vertex -24.5 59 0.849999
    endloop
  endfacet
  facet normal -0.980785 -0.195091 0
    outer loop
      vertex -26.8097 60.5433 0.849999
      vertex -27 61.5 3.1
      vertex -27 61.5 0.849999
    endloop
  endfacet
  facet normal -0.980785 -0.195091 0
    outer loop
      vertex -27 61.5 3.1
      vertex -26.8097 60.5433 0.849999
      vertex -26.8097 60.5433 3.1
    endloop
  endfacet
  facet normal 0.195091 0.980785 -0
    outer loop
      vertex -23.5433 63.8097 0.849999
      vertex -24.5 64 3.1
      vertex -23.5433 63.8097 3.1
    endloop
  endfacet
  facet normal 0.195091 0.980785 0
    outer loop
      vertex -24.5 64 3.1
      vertex -23.5433 63.8097 0.849999
      vertex -24.5 64 0.849999
    endloop
  endfacet
  facet normal 0.980785 -0.195091 0
    outer loop
      vertex -22.1903 60.5433 3.1
      vertex -22 61.5 0.849999
      vertex -22 61.5 3.1
    endloop
  endfacet
  facet normal 0.980785 -0.195091 0
    outer loop
      vertex -22 61.5 0.849999
      vertex -22.1903 60.5433 3.1
      vertex -22.1903 60.5433 0.849999
    endloop
  endfacet
  facet normal 0.555528 -0.831498 0
    outer loop
      vertex -23.5433 59.1903 0.849999
      vertex -22.7322 59.7322 3.1
      vertex -23.5433 59.1903 3.1
    endloop
  endfacet
  facet normal 0.555528 -0.831498 0
    outer loop
      vertex -22.7322 59.7322 3.1
      vertex -23.5433 59.1903 0.849999
      vertex -22.7322 59.7322 0.849999
    endloop
  endfacet
  facet normal -0.831498 -0.555528 0
    outer loop
      vertex -26.2678 59.7322 0.849999
      vertex -26.8097 60.5433 3.1
      vertex -26.8097 60.5433 0.849999
    endloop
  endfacet
  facet normal -0.831498 -0.555528 0
    outer loop
      vertex -26.8097 60.5433 3.1
      vertex -26.2678 59.7322 0.849999
      vertex -26.2678 59.7322 3.1
    endloop
  endfacet
  facet normal -0.555528 0.831498 0
    outer loop
      vertex -25.4567 63.8097 0.0999994
      vertex -26.2678 63.2678 3.1
      vertex -25.4567 63.8097 3.1
    endloop
  endfacet
  facet normal -0.555528 0.831498 0
    outer loop
      vertex -26.2678 63.2678 3.1
      vertex -25.4567 63.8097 0.0999994
      vertex -26.2678 63.2678 0.0999994
    endloop
  endfacet
  facet normal -0.555528 -0.831498 0
    outer loop
      vertex -26.2678 59.7322 0.849999
      vertex -25.4567 59.1903 3.1
      vertex -26.2678 59.7322 3.1
    endloop
  endfacet
  facet normal -0.555528 -0.831498 -0
    outer loop
      vertex -25.4567 59.1903 3.1
      vertex -26.2678 59.7322 0.849999
      vertex -25.4567 59.1903 0.849999
    endloop
  endfacet
  facet normal 0 0 1
    outer loop
      vertex -23 61.5 3.1
      vertex -22 61.5 3.1
      vertex -22.1903 62.4567 3.1
    endloop
  endfacet
  facet normal 0 0 1
    outer loop
      vertex -23.1142 62.074 3.1
      vertex -22.1903 62.4567 3.1
      vertex -22.7322 63.2678 3.1
    endloop
  endfacet
  facet normal 0 0 1
    outer loop
      vertex -22 61.5 3.1
      vertex -23 61.5 3.1
      vertex -22.1903 60.5433 3.1
    endloop
  endfacet
  facet normal -0 0 1
    outer loop
      vertex -23.1142 60.926 3.1
      vertex -22.1903 60.5433 3.1
      vertex -23 61.5 3.1
    endloop
  endfacet
  facet normal 0 0 1
    outer loop
      vertex -22.1903 62.4567 3.1
      vertex -23.1142 62.074 3.1
      vertex -23 61.5 3.1
    endloop
  endfacet
  facet normal 0 0 1
    outer loop
      vertex -22.7322 63.2678 3.1
      vertex -23.4393 62.5607 3.1
      vertex -23.1142 62.074 3.1
    endloop
  endfacet
  facet normal 0 0 1
    outer loop
      vertex -23.5433 63.8097 3.1
      vertex -23.4393 62.5607 3.1
      vertex -22.7322 63.2678 3.1
    endloop
  endfacet
  facet normal 0 0 1
    outer loop
      vertex -23.5433 63.8097 3.1
      vertex -23.926 62.8858 3.1
      vertex -23.4393 62.5607 3.1
    endloop
  endfacet
  facet normal 0 0 1
    outer loop
      vertex -24.5 64 3.1
      vertex -23.926 62.8858 3.1
      vertex -23.5433 63.8097 3.1
    endloop
  endfacet
  facet normal 0 0 1
    outer loop
      vertex -24.5 64 3.1
      vertex -24.5 63 3.1
      vertex -23.926 62.8858 3.1
    endloop
  endfacet
  facet normal 0 0 1
    outer loop
      vertex -24.5 64 3.1
      vertex -25.074 62.8858 3.1
      vertex -24.5 63 3.1
    endloop
  endfacet
  facet normal -0 0 1
    outer loop
      vertex -25.4567 63.8097 3.1
      vertex -25.074 62.8858 3.1
      vertex -24.5 64 3.1
    endloop
  endfacet
  facet normal 0 0 1
    outer loop
      vertex -25.4567 63.8097 3.1
      vertex -25.5607 62.5607 3.1
      vertex -25.074 62.8858 3.1
    endloop
  endfacet
  facet normal -0 0 1
    outer loop
      vertex -26.2678 63.2678 3.1
      vertex -25.5607 62.5607 3.1
      vertex -25.4567 63.8097 3.1
    endloop
  endfacet
  facet normal -0 0 1
    outer loop
      vertex -26.8097 62.4567 3.1
      vertex -25.8858 62.074 3.1
      vertex -26.2678 63.2678 3.1
    endloop
  endfacet
  facet normal 0 0 1
    outer loop
      vertex -25.5607 62.5607 3.1
      vertex -26.2678 63.2678 3.1
      vertex -25.8858 62.074 3.1
    endloop
  endfacet
  facet normal 0 0 1
    outer loop
      vertex -22.1903 60.5433 3.1
      vertex -23.1142 60.926 3.1
      vertex -22.7322 59.7322 3.1
    endloop
  endfacet
  facet normal -0 0 1
    outer loop
      vertex -23.4393 60.4393 3.1
      vertex -22.7322 59.7322 3.1
      vertex -23.1142 60.926 3.1
    endloop
  endfacet
  facet normal 0 0 1
    outer loop
      vertex -23.4393 60.4393 3.1
      vertex -23.5433 59.1903 3.1
      vertex -22.7322 59.7322 3.1
    endloop
  endfacet
  facet normal -0 0 1
    outer loop
      vertex -23.926 60.1142 3.1
      vertex -23.5433 59.1903 3.1
      vertex -23.4393 60.4393 3.1
    endloop
  endfacet
  facet normal -0 0 1
    outer loop
      vertex -24.5 60 3.1
      vertex -23.5433 59.1903 3.1
      vertex -23.926 60.1142 3.1
    endloop
  endfacet
  facet normal 0 0 1
    outer loop
      vertex -24.5 60 3.1
      vertex -24.5 59 3.1
      vertex -23.5433 59.1903 3.1
    endloop
  endfacet
  facet normal 0 0 1
    outer loop
      vertex -25.074 60.1142 3.1
      vertex -24.5 59 3.1
      vertex -24.5 60 3.1
    endloop
  endfacet
  facet normal 0 0 1
    outer loop
      vertex -25.074 60.1142 3.1
      vertex -25.4567 59.1903 3.1
      vertex -24.5 59 3.1
    endloop
  endfacet
  facet normal 0 0 1
    outer loop
      vertex -25.5607 60.4393 3.1
      vertex -25.4567 59.1903 3.1
      vertex -25.074 60.1142 3.1
    endloop
  endfacet
  facet normal 0 0 1
    outer loop
      vertex -26.2678 59.7322 3.1
      vertex -25.5607 60.4393 3.1
      vertex -25.8858 60.926 3.1
    endloop
  endfacet
  facet normal 0 0 1
    outer loop
      vertex -25.5607 60.4393 3.1
      vertex -26.2678 59.7322 3.1
      vertex -25.4567 59.1903 3.1
    endloop
  endfacet
  facet normal 0 0 1
    outer loop
      vertex -26.8097 60.5433 3.1
      vertex -25.8858 60.926 3.1
      vertex -26 61.5 3.1
    endloop
  endfacet
  facet normal 0 0 1
    outer loop
      vertex -25.8858 62.074 3.1
      vertex -26.8097 62.4567 3.1
      vertex -26 61.5 3.1
    endloop
  endfacet
  facet normal 0 0 1
    outer loop
      vertex -27 61.5 3.1
      vertex -26 61.5 3.1
      vertex -26.8097 62.4567 3.1
    endloop
  endfacet
  facet normal 0 0 1
    outer loop
      vertex -25.8858 60.926 3.1
      vertex -26.8097 60.5433 3.1
      vertex -26.2678 59.7322 3.1
    endloop
  endfacet
  facet normal 0 0 1
    outer loop
      vertex -26 61.5 3.1
      vertex -27 61.5 3.1
      vertex -26.8097 60.5433 3.1
    endloop
  endfacet
  facet normal 0.831498 0.555528 0
    outer loop
      vertex 26.8097 62.4567 3.1
      vertex 26.2678 63.2678 0.0999994
      vertex 26.2678 63.2678 3.1
    endloop
  endfacet
  facet normal 0.831498 0.555528 0
    outer loop
      vertex 26.2678 63.2678 0.0999994
      vertex 26.8097 62.4567 3.1
      vertex 26.8097 62.4567 0.0999994
    endloop
  endfacet
  facet normal 0.980785 0.195091 -0
    outer loop
      vertex 27 61.5 0.849999
      vertex 26.8097 62.4567 3.1
      vertex 27 61.5 3.1
    endloop
  endfacet
  facet normal 0.980785 0.195091 0
    outer loop
      vertex 26.8097 62.4567 3.1
      vertex 27 61.5 0.849999
      vertex 26.8097 62.4567 0.0999994
    endloop
  endfacet
  facet normal 0.980785 0.195091 0
    outer loop
      vertex 26.8097 62.4567 0.0999994
      vertex 27 61.5 0.849999
      vertex 27 61.5 0.0999994
    endloop
  endfacet
  facet normal 0.555528 0.831498 -0
    outer loop
      vertex 26.2678 63.2678 0.0999994
      vertex 25.4567 63.8097 3.1
      vertex 26.2678 63.2678 3.1
    endloop
  endfacet
  facet normal 0.555528 0.831498 0
    outer loop
      vertex 25.4567 63.8097 3.1
      vertex 26.2678 63.2678 0.0999994
      vertex 25.4567 63.8097 0.0999994
    endloop
  endfacet
  facet normal 0.831498 -0.555528 0
    outer loop
      vertex 26.2678 59.7322 3.1
      vertex 26.8097 60.5433 0.849999
      vertex 26.8097 60.5433 3.1
    endloop
  endfacet
  facet normal 0.831498 -0.555528 0
    outer loop
      vertex 26.8097 60.5433 0.849999
      vertex 26.2678 59.7322 3.1
      vertex 26.2678 59.7322 0.849999
    endloop
  endfacet
  facet normal -0.195091 0.980785 0
    outer loop
      vertex 24.5 64 0.849999
      vertex 23.5433 63.8097 3.1
      vertex 24.5 64 3.1
    endloop
  endfacet
  facet normal -0.195091 0.980785 0
    outer loop
      vertex 23.5433 63.8097 3.1
      vertex 24.5 64 0.849999
      vertex 23.5433 63.8097 0.849999
    endloop
  endfacet
  facet normal -0.831498 0.555528 0
    outer loop
      vertex 22.1903 62.4567 0.849999
      vertex 22.7322 63.2678 3.1
      vertex 22.7322 63.2678 0.849999
    endloop
  endfacet
  facet normal -0.831498 0.555528 0
    outer loop
      vertex 22.7322 63.2678 3.1
      vertex 22.1903 62.4567 0.849999
      vertex 22.1903 62.4567 3.1
    endloop
  endfacet
  facet normal -0.980785 0.195091 0
    outer loop
      vertex 22 61.5 0.849999
      vertex 22.1903 62.4567 3.1
      vertex 22.1903 62.4567 0.849999
    endloop
  endfacet
  facet normal -0.980785 0.195091 0
    outer loop
      vertex 22.1903 62.4567 3.1
      vertex 22 61.5 0.849999
      vertex 22 61.5 3.1
    endloop
  endfacet
  facet normal 0.195091 -0.980785 0
    outer loop
      vertex 24.5 59 0.849999
      vertex 25.4567 59.1903 3.1
      vertex 24.5 59 3.1
    endloop
  endfacet
  facet normal 0.195091 -0.980785 0
    outer loop
      vertex 25.4567 59.1903 3.1
      vertex 24.5 59 0.849999
      vertex 25.4567 59.1903 0.849999
    endloop
  endfacet
  facet normal -0.195091 -0.980785 0
    outer loop
      vertex 23.5433 59.1903 0.849999
      vertex 24.5 59 3.1
      vertex 23.5433 59.1903 3.1
    endloop
  endfacet
  facet normal -0.195091 -0.980785 -0
    outer loop
      vertex 24.5 59 3.1
      vertex 23.5433 59.1903 0.849999
      vertex 24.5 59 0.849999
    endloop
  endfacet
  facet normal -0.980785 -0.195091 0
    outer loop
      vertex 22.1903 60.5433 0.849999
      vertex 22 61.5 3.1
      vertex 22 61.5 0.849999
    endloop
  endfacet
  facet normal -0.980785 -0.195091 0
    outer loop
      vertex 22 61.5 3.1
      vertex 22.1903 60.5433 0.849999
      vertex 22.1903 60.5433 3.1
    endloop
  endfacet
  facet normal 0.195091 0.980785 0
    outer loop
      vertex 25.4567 63.8097 3.1
      vertex 24.5 64 0.849999
      vertex 24.5 64 3.1
    endloop
  endfacet
  facet normal 0.195091 0.980785 -0
    outer loop
      vertex 25.4567 63.8097 0.0999994
      vertex 24.5 64 0.849999
      vertex 25.4567 63.8097 3.1
    endloop
  endfacet
  facet normal 0.195091 0.980785 0
    outer loop
      vertex 24.5 64 0.849999
      vertex 25.4567 63.8097 0.0999994
      vertex 24.5 64 0.0999994
    endloop
  endfacet
  facet normal 0.980785 -0.195091 0
    outer loop
      vertex 26.8097 60.5433 3.1
      vertex 27 61.5 0.849999
      vertex 27 61.5 3.1
    endloop
  endfacet
  facet normal 0.980785 -0.195091 0
    outer loop
      vertex 27 61.5 0.849999
      vertex 26.8097 60.5433 3.1
      vertex 26.8097 60.5433 0.849999
    endloop
  endfacet
  facet normal 0.555528 -0.831498 0
    outer loop
      vertex 25.4567 59.1903 0.849999
      vertex 26.2678 59.7322 3.1
      vertex 25.4567 59.1903 3.1
    endloop
  endfacet
  facet normal 0.555528 -0.831498 0
    outer loop
      vertex 26.2678 59.7322 3.1
      vertex 25.4567 59.1903 0.849999
      vertex 26.2678 59.7322 0.849999
    endloop
  endfacet
  facet normal -0.831498 -0.555528 0
    outer loop
      vertex 22.7322 59.7322 0.849999
      vertex 22.1903 60.5433 3.1
      vertex 22.1903 60.5433 0.849999
    endloop
  endfacet
  facet normal -0.831498 -0.555528 0
    outer loop
      vertex 22.1903 60.5433 3.1
      vertex 22.7322 59.7322 0.849999
      vertex 22.7322 59.7322 3.1
    endloop
  endfacet
  facet normal -0.555528 0.831498 0
    outer loop
      vertex 23.5433 63.8097 0.849999
      vertex 22.7322 63.2678 3.1
      vertex 23.5433 63.8097 3.1
    endloop
  endfacet
  facet normal -0.555528 0.831498 0
    outer loop
      vertex 22.7322 63.2678 3.1
      vertex 23.5433 63.8097 0.849999
      vertex 22.7322 63.2678 0.849999
    endloop
  endfacet
  facet normal -0.555528 -0.831498 0
    outer loop
      vertex 22.7322 59.7322 0.849999
      vertex 23.5433 59.1903 3.1
      vertex 22.7322 59.7322 3.1
    endloop
  endfacet
  facet normal -0.555528 -0.831498 -0
    outer loop
      vertex 23.5433 59.1903 3.1
      vertex 22.7322 59.7322 0.849999
      vertex 23.5433 59.1903 0.849999
    endloop
  endfacet
  facet normal 0 0 1
    outer loop
      vertex 26 61.5 3.1
      vertex 27 61.5 3.1
      vertex 26.8097 62.4567 3.1
    endloop
  endfacet
  facet normal 0 0 1
    outer loop
      vertex 25.8858 62.074 3.1
      vertex 26.8097 62.4567 3.1
      vertex 26.2678 63.2678 3.1
    endloop
  endfacet
  facet normal 0 0 1
    outer loop
      vertex 27 61.5 3.1
      vertex 26 61.5 3.1
      vertex 26.8097 60.5433 3.1
    endloop
  endfacet
  facet normal -0 0 1
    outer loop
      vertex 25.8858 60.926 3.1
      vertex 26.8097 60.5433 3.1
      vertex 26 61.5 3.1
    endloop
  endfacet
  facet normal 0 0 1
    outer loop
      vertex 26.8097 62.4567 3.1
      vertex 25.8858 62.074 3.1
      vertex 26 61.5 3.1
    endloop
  endfacet
  facet normal 0 0 1
    outer loop
      vertex 26.2678 63.2678 3.1
      vertex 25.5607 62.5607 3.1
      vertex 25.8858 62.074 3.1
    endloop
  endfacet
  facet normal 0 0 1
    outer loop
      vertex 25.4567 63.8097 3.1
      vertex 25.5607 62.5607 3.1
      vertex 26.2678 63.2678 3.1
    endloop
  endfacet
  facet normal 0 0 1
    outer loop
      vertex 25.4567 63.8097 3.1
      vertex 25.074 62.8858 3.1
      vertex 25.5607 62.5607 3.1
    endloop
  endfacet
  facet normal 0 0 1
    outer loop
      vertex 24.5 64 3.1
      vertex 25.074 62.8858 3.1
      vertex 25.4567 63.8097 3.1
    endloop
  endfacet
  facet normal 0 0 1
    outer loop
      vertex 24.5 64 3.1
      vertex 24.5 63 3.1
      vertex 25.074 62.8858 3.1
    endloop
  endfacet
  facet normal 0 0 1
    outer loop
      vertex 24.5 64 3.1
      vertex 23.926 62.8858 3.1
      vertex 24.5 63 3.1
    endloop
  endfacet
  facet normal -0 0 1
    outer loop
      vertex 23.5433 63.8097 3.1
      vertex 23.926 62.8858 3.1
      vertex 24.5 64 3.1
    endloop
  endfacet
  facet normal 0 0 1
    outer loop
      vertex 23.5433 63.8097 3.1
      vertex 23.4393 62.5607 3.1
      vertex 23.926 62.8858 3.1
    endloop
  endfacet
  facet normal -0 0 1
    outer loop
      vertex 22.7322 63.2678 3.1
      vertex 23.4393 62.5607 3.1
      vertex 23.5433 63.8097 3.1
    endloop
  endfacet
  facet normal -0 0 1
    outer loop
      vertex 22.1903 62.4567 3.1
      vertex 23.1142 62.074 3.1
      vertex 22.7322 63.2678 3.1
    endloop
  endfacet
  facet normal 0 0 1
    outer loop
      vertex 23.4393 62.5607 3.1
      vertex 22.7322 63.2678 3.1
      vertex 23.1142 62.074 3.1
    endloop
  endfacet
  facet normal 0 0 1
    outer loop
      vertex 26.8097 60.5433 3.1
      vertex 25.8858 60.926 3.1
      vertex 26.2678 59.7322 3.1
    endloop
  endfacet
  facet normal -0 0 1
    outer loop
      vertex 25.5607 60.4393 3.1
      vertex 26.2678 59.7322 3.1
      vertex 25.8858 60.926 3.1
    endloop
  endfacet
  facet normal 0 0 1
    outer loop
      vertex 25.5607 60.4393 3.1
      vertex 25.4567 59.1903 3.1
      vertex 26.2678 59.7322 3.1
    endloop
  endfacet
  facet normal -0 0 1
    outer loop
      vertex 25.074 60.1142 3.1
      vertex 25.4567 59.1903 3.1
      vertex 25.5607 60.4393 3.1
    endloop
  endfacet
  facet normal -0 0 1
    outer loop
      vertex 24.5 60 3.1
      vertex 25.4567 59.1903 3.1
      vertex 25.074 60.1142 3.1
    endloop
  endfacet
  facet normal 0 0 1
    outer loop
      vertex 24.5 60 3.1
      vertex 24.5 59 3.1
      vertex 25.4567 59.1903 3.1
    endloop
  endfacet
  facet normal 0 0 1
    outer loop
      vertex 23.926 60.1142 3.1
      vertex 24.5 59 3.1
      vertex 24.5 60 3.1
    endloop
  endfacet
  facet normal 0 0 1
    outer loop
      vertex 23.926 60.1142 3.1
      vertex 23.5433 59.1903 3.1
      vertex 24.5 59 3.1
    endloop
  endfacet
  facet normal 0 0 1
    outer loop
      vertex 23.4393 60.4393 3.1
      vertex 23.5433 59.1903 3.1
      vertex 23.926 60.1142 3.1
    endloop
  endfacet
  facet normal 0 0 1
    outer loop
      vertex 22.7322 59.7322 3.1
      vertex 23.4393 60.4393 3.1
      vertex 23.1142 60.926 3.1
    endloop
  endfacet
  facet normal 0 0 1
    outer loop
      vertex 23.4393 60.4393 3.1
      vertex 22.7322 59.7322 3.1
      vertex 23.5433 59.1903 3.1
    endloop
  endfacet
  facet normal 0 0 1
    outer loop
      vertex 22.1903 60.5433 3.1
      vertex 23.1142 60.926 3.1
      vertex 23 61.5 3.1
    endloop
  endfacet
  facet normal 0 0 1
    outer loop
      vertex 23.1142 62.074 3.1
      vertex 22.1903 62.4567 3.1
      vertex 23 61.5 3.1
    endloop
  endfacet
  facet normal 0 0 1
    outer loop
      vertex 22 61.5 3.1
      vertex 23 61.5 3.1
      vertex 22.1903 62.4567 3.1
    endloop
  endfacet
  facet normal 0 0 1
    outer loop
      vertex 23.1142 60.926 3.1
      vertex 22.1903 60.5433 3.1
      vertex 22.7322 59.7322 3.1
    endloop
  endfacet
  facet normal 0 0 1
    outer loop
      vertex 23 61.5 3.1
      vertex 22 61.5 3.1
      vertex 22.1903 60.5433 3.1
    endloop
  endfacet
  facet normal 1 -0 0
    outer loop
      vertex 27 3.5 0.849999
      vertex 27 61.5 0.0999994
      vertex 27 61.5 0.849999
    endloop
  endfacet
  facet normal 1 0 0
    outer loop
      vertex 27 61.5 0.0999994
      vertex 27 3.5 0.849999
      vertex 27 3.5 0.0999994
    endloop
  endfacet
  facet normal -1 0 0
    outer loop
      vertex -27 3.5 0.0999994
      vertex -27 61.5 0.849999
      vertex -27 61.5 0.0999994
    endloop
  endfacet
  facet normal -1 -0 0
    outer loop
      vertex -27 61.5 0.849999
      vertex -27 3.5 0.0999994
      vertex -27 3.5 0.849999
    endloop
  endfacet
  facet normal 0 1 -0
    outer loop
      vertex 24.5 64 0.0999994
      vertex -24.5 64 0.849999
      vertex 24.5 64 0.849999
    endloop
  endfacet
  facet normal 0 1 0
    outer loop
      vertex -24.5 64 0.849999
      vertex 24.5 64 0.0999994
      vertex -24.5 64 0.0999994
    endloop
  endfacet
  facet normal 0 -1 0
    outer loop
      vertex -24.5 1 0.0999994
      vertex 24.5 1 0.849999
      vertex -24.5 1 0.849999
    endloop
  endfacet
  facet normal 0 -1 -0
    outer loop
      vertex 24.5 1 0.849999
      vertex -24.5 1 0.0999994
      vertex 24.5 1 0.0999994
    endloop
  endfacet
  facet normal 0 0 -1
    outer loop
      vertex 23.4393 4.56066 0.0999994
      vertex -23.4393 4.56066 0.0999994
      vertex 23.4393 60.4393 0.0999994
    endloop
  endfacet
  facet normal 0 0 -1
    outer loop
      vertex 23.4393 60.4393 0.0999994
      vertex -23.1142 60.926 0.0999994
      vertex -23 61.5 0.0999994
    endloop
  endfacet
  facet normal 0 0 -1
    outer loop
      vertex -23.4393 60.4393 0.0999994
      vertex 23.4393 60.4393 0.0999994
      vertex -23.4393 4.56066 0.0999994
    endloop
  endfacet
  facet normal 0 0 -1
    outer loop
      vertex 23.4393 60.4393 0.0999994
      vertex -23.4393 60.4393 0.0999994
      vertex -23.1142 60.926 0.0999994
    endloop
  endfacet
  facet normal 0 0 -1
    outer loop
      vertex -23.926 4.88582 0.0999994
      vertex -23.4393 60.4393 0.0999994
      vertex -23.4393 4.56066 0.0999994
    endloop
  endfacet
  facet normal 0 0 -1
    outer loop
      vertex -23.926 4.88582 0.0999994
      vertex -23.926 60.1142 0.0999994
      vertex -23.4393 60.4393 0.0999994
    endloop
  endfacet
  facet normal 0 0 -1
    outer loop
      vertex -24.5 5 0.0999994
      vertex -23.926 60.1142 0.0999994
      vertex -23.926 4.88582 0.0999994
    endloop
  endfacet
  facet normal 0 0 -1
    outer loop
      vertex -24.5 5 0.0999994
      vertex -24.5 60 0.0999994
      vertex -23.926 60.1142 0.0999994
    endloop
  endfacet
  facet normal 0 0 -1
    outer loop
      vertex -25.074 4.88582 0.0999994
      vertex -24.5 60 0.0999994
      vertex -24.5 5 0.0999994
    endloop
  endfacet
  facet normal 0 0 -1
    outer loop
      vertex -25.074 4.88582 0.0999994
      vertex -25.074 60.1142 0.0999994
      vertex -24.5 60 0.0999994
    endloop
  endfacet
  facet normal 0 0 -1
    outer loop
      vertex -25.5607 4.56066 0.0999994
      vertex -25.074 60.1142 0.0999994
      vertex -25.074 4.88582 0.0999994
    endloop
  endfacet
  facet normal 0 0 -1
    outer loop
      vertex -25.5607 4.56066 0.0999994
      vertex -25.5607 60.4393 0.0999994
      vertex -25.074 60.1142 0.0999994
    endloop
  endfacet
  facet normal 0 0 -1
    outer loop
      vertex -27 3.5 0.0999994
      vertex -25.5607 4.56066 0.0999994
      vertex -25.8858 4.07402 0.0999994
    endloop
  endfacet
  facet normal -0 0 -1
    outer loop
      vertex -25.5607 4.56066 0.0999994
      vertex -27 3.5 0.0999994
      vertex -25.5607 60.4393 0.0999994
    endloop
  endfacet
  facet normal 0 0 -1
    outer loop
      vertex -27 3.5 0.0999994
      vertex -25.8858 4.07402 0.0999994
      vertex -26 3.5 0.0999994
    endloop
  endfacet
  facet normal 0 0 -1
    outer loop
      vertex -27 61.5 0.0999994
      vertex -25.5607 60.4393 0.0999994
      vertex -27 3.5 0.0999994
    endloop
  endfacet
  facet normal 0 0 -1
    outer loop
      vertex 27 3.5 0.0999994
      vertex 25.5607 4.56066 0.0999994
      vertex 27 61.5 0.0999994
    endloop
  endfacet
  facet normal -0 0 -1
    outer loop
      vertex 27 61.5 0.0999994
      vertex 25.8858 60.926 0.0999994
      vertex 26 61.5 0.0999994
    endloop
  endfacet
  facet normal 0 0 -1
    outer loop
      vertex 25.5607 60.4393 0.0999994
      vertex 27 61.5 0.0999994
      vertex 25.5607 4.56066 0.0999994
    endloop
  endfacet
  facet normal 0 0 -1
    outer loop
      vertex 27 61.5 0.0999994
      vertex 25.5607 60.4393 0.0999994
      vertex 25.8858 60.926 0.0999994
    endloop
  endfacet
  facet normal 0 0 -1
    outer loop
      vertex 25.074 4.88582 0.0999994
      vertex 25.5607 60.4393 0.0999994
      vertex 25.5607 4.56066 0.0999994
    endloop
  endfacet
  facet normal 0 0 -1
    outer loop
      vertex 25.074 4.88582 0.0999994
      vertex 25.074 60.1142 0.0999994
      vertex 25.5607 60.4393 0.0999994
    endloop
  endfacet
  facet normal 0 0 -1
    outer loop
      vertex 24.5 5 0.0999994
      vertex 25.074 60.1142 0.0999994
      vertex 25.074 4.88582 0.0999994
    endloop
  endfacet
  facet normal 0 0 -1
    outer loop
      vertex 24.5 5 0.0999994
      vertex 24.5 60 0.0999994
      vertex 25.074 60.1142 0.0999994
    endloop
  endfacet
  facet normal 0 0 -1
    outer loop
      vertex 23.926 4.88582 0.0999994
      vertex 24.5 60 0.0999994
      vertex 24.5 5 0.0999994
    endloop
  endfacet
  facet normal 0 0 -1
    outer loop
      vertex 23.926 4.88582 0.0999994
      vertex 23.926 60.1142 0.0999994
      vertex 24.5 60 0.0999994
    endloop
  endfacet
  facet normal 0 0 -1
    outer loop
      vertex 23.4393 4.56066 0.0999994
      vertex 23.926 60.1142 0.0999994
      vertex 23.926 4.88582 0.0999994
    endloop
  endfacet
  facet normal 0 0 -1
    outer loop
      vertex 23.4393 4.56066 0.0999994
      vertex 23.4393 60.4393 0.0999994
      vertex 23.926 60.1142 0.0999994
    endloop
  endfacet
  facet normal 0 0 -1
    outer loop
      vertex -23.1142 4.07402 0.0999994
      vertex 23.1142 4.07402 0.0999994
      vertex -23 3.5 0.0999994
    endloop
  endfacet
  facet normal 0 0 -1
    outer loop
      vertex 23.1142 4.07402 0.0999994
      vertex -23.1142 4.07402 0.0999994
      vertex 23.4393 4.56066 0.0999994
    endloop
  endfacet
  facet normal 0 0 -1
    outer loop
      vertex -23 3.5 0.0999994
      vertex 23.1142 4.07402 0.0999994
      vertex 23 3.5 0.0999994
    endloop
  endfacet
  facet normal 0 0 -1
    outer loop
      vertex -23.4393 4.56066 0.0999994
      vertex 23.4393 4.56066 0.0999994
      vertex -23.1142 4.07402 0.0999994
    endloop
  endfacet
  facet normal 0 0 -1
    outer loop
      vertex 26 3.5 0.0999994
      vertex 27 3.5 0.0999994
      vertex 26.8097 2.54329 0.0999994
    endloop
  endfacet
  facet normal 0 0 -1
    outer loop
      vertex 25.8858 4.07402 0.0999994
      vertex 27 3.5 0.0999994
      vertex 26 3.5 0.0999994
    endloop
  endfacet
  facet normal 0 0 -1
    outer loop
      vertex 25.8858 2.92597 0.0999994
      vertex 26.8097 2.54329 0.0999994
      vertex 26.2678 1.73223 0.0999994
    endloop
  endfacet
  facet normal 0 0 -1
    outer loop
      vertex 25.5607 4.56066 0.0999994
      vertex 27 3.5 0.0999994
      vertex 25.8858 4.07402 0.0999994
    endloop
  endfacet
  facet normal 0 0 -1
    outer loop
      vertex 27 61.5 0.0999994
      vertex 26 61.5 0.0999994
      vertex 26.8097 62.4567 0.0999994
    endloop
  endfacet
  facet normal 0 0 -1
    outer loop
      vertex 26.8097 2.54329 0.0999994
      vertex 25.8858 2.92597 0.0999994
      vertex 26 3.5 0.0999994
    endloop
  endfacet
  facet normal 0 0 -1
    outer loop
      vertex 26.2678 1.73223 0.0999994
      vertex 25.5607 2.43934 0.0999994
      vertex 25.8858 2.92597 0.0999994
    endloop
  endfacet
  facet normal 0 0 -1
    outer loop
      vertex 25.4567 1.1903 0.0999994
      vertex 25.5607 2.43934 0.0999994
      vertex 26.2678 1.73223 0.0999994
    endloop
  endfacet
  facet normal 0 0 -1
    outer loop
      vertex 25.4567 1.1903 0.0999994
      vertex 25.074 2.11418 0.0999994
      vertex 25.5607 2.43934 0.0999994
    endloop
  endfacet
  facet normal 0 0 -1
    outer loop
      vertex 24.5 1 0.0999994
      vertex 25.074 2.11418 0.0999994
      vertex 25.4567 1.1903 0.0999994
    endloop
  endfacet
  facet normal 0 0 -1
    outer loop
      vertex 24.5 1 0.0999994
      vertex 24.5 2 0.0999994
      vertex 25.074 2.11418 0.0999994
    endloop
  endfacet
  facet normal 0 0 -1
    outer loop
      vertex 24.5 1 0.0999994
      vertex 23.926 2.11418 0.0999994
      vertex 24.5 2 0.0999994
    endloop
  endfacet
  facet normal 0 0 -1
    outer loop
      vertex 24.5 1 0.0999994
      vertex 23.4393 2.43934 0.0999994
      vertex 23.926 2.11418 0.0999994
    endloop
  endfacet
  facet normal 0 0 -1
    outer loop
      vertex 23.4393 60.4393 0.0999994
      vertex -23 61.5 0.0999994
      vertex 23.1142 60.926 0.0999994
    endloop
  endfacet
  facet normal 0 0 -1
    outer loop
      vertex 23.1142 2.92597 0.0999994
      vertex -23 3.5 0.0999994
      vertex 23 3.5 0.0999994
    endloop
  endfacet
  facet normal 0 0 -1
    outer loop
      vertex -23.1142 2.92597 0.0999994
      vertex 23.1142 2.92597 0.0999994
      vertex 23.4393 2.43934 0.0999994
    endloop
  endfacet
  facet normal 0 0 -1
    outer loop
      vertex -23.4393 2.43934 0.0999994
      vertex 23.4393 2.43934 0.0999994
      vertex 24.5 1 0.0999994
    endloop
  endfacet
  facet normal 0 0 -1
    outer loop
      vertex 23.1142 2.92597 0.0999994
      vertex -23.1142 2.92597 0.0999994
      vertex -23 3.5 0.0999994
    endloop
  endfacet
  facet normal 0 0 -1
    outer loop
      vertex 23.4393 2.43934 0.0999994
      vertex -23.4393 2.43934 0.0999994
      vertex -23.1142 2.92597 0.0999994
    endloop
  endfacet
  facet normal 0 0 -1
    outer loop
      vertex -24.5 1 0.0999994
      vertex -23.4393 2.43934 0.0999994
      vertex 24.5 1 0.0999994
    endloop
  endfacet
  facet normal 0 0 -1
    outer loop
      vertex -23.4393 2.43934 0.0999994
      vertex -24.5 1 0.0999994
      vertex -23.926 2.11418 0.0999994
    endloop
  endfacet
  facet normal 0 0 -1
    outer loop
      vertex -24.5 1 0.0999994
      vertex -24.5 2 0.0999994
      vertex -23.926 2.11418 0.0999994
    endloop
  endfacet
  facet normal 0 0 -1
    outer loop
      vertex -24.5 1 0.0999994
      vertex -25.074 2.11418 0.0999994
      vertex -24.5 2 0.0999994
    endloop
  endfacet
  facet normal 0 0 -1
    outer loop
      vertex -25.4567 1.1903 0.0999994
      vertex -25.074 2.11418 0.0999994
      vertex -24.5 1 0.0999994
    endloop
  endfacet
  facet normal 0 0 -1
    outer loop
      vertex -25.4567 1.1903 0.0999994
      vertex -25.5607 2.43934 0.0999994
      vertex -25.074 2.11418 0.0999994
    endloop
  endfacet
  facet normal 0 0 -1
    outer loop
      vertex -26.2678 1.73223 0.0999994
      vertex -25.5607 2.43934 0.0999994
      vertex -25.4567 1.1903 0.0999994
    endloop
  endfacet
  facet normal -0 0 -1
    outer loop
      vertex -25.8858 2.92597 0.0999994
      vertex -26.8097 2.54329 0.0999994
      vertex -26 3.5 0.0999994
    endloop
  endfacet
  facet normal 0 0 -1
    outer loop
      vertex -26.8097 2.54329 0.0999994
      vertex -25.8858 2.92597 0.0999994
      vertex -26.2678 1.73223 0.0999994
    endloop
  endfacet
  facet normal -0 0 -1
    outer loop
      vertex -25.5607 2.43934 0.0999994
      vertex -26.2678 1.73223 0.0999994
      vertex -25.8858 2.92597 0.0999994
    endloop
  endfacet
  facet normal 0 0 -1
    outer loop
      vertex 25.8858 62.074 0.0999994
      vertex 26.8097 62.4567 0.0999994
      vertex 26 61.5 0.0999994
    endloop
  endfacet
  facet normal -0 0 -1
    outer loop
      vertex 26.8097 62.4567 0.0999994
      vertex 25.8858 62.074 0.0999994
      vertex 26.2678 63.2678 0.0999994
    endloop
  endfacet
  facet normal 0 0 -1
    outer loop
      vertex 25.5607 62.5607 0.0999994
      vertex 26.2678 63.2678 0.0999994
      vertex 25.8858 62.074 0.0999994
    endloop
  endfacet
  facet normal 0 0 -1
    outer loop
      vertex 25.5607 62.5607 0.0999994
      vertex 25.4567 63.8097 0.0999994
      vertex 26.2678 63.2678 0.0999994
    endloop
  endfacet
  facet normal 0 0 -1
    outer loop
      vertex 25.074 62.8858 0.0999994
      vertex 25.4567 63.8097 0.0999994
      vertex 25.5607 62.5607 0.0999994
    endloop
  endfacet
  facet normal 0 0 -1
    outer loop
      vertex 24.5 63 0.0999994
      vertex 25.4567 63.8097 0.0999994
      vertex 25.074 62.8858 0.0999994
    endloop
  endfacet
  facet normal 0 0 -1
    outer loop
      vertex 24.5 63 0.0999994
      vertex 24.5 64 0.0999994
      vertex 25.4567 63.8097 0.0999994
    endloop
  endfacet
  facet normal 0 0 -1
    outer loop
      vertex 23.926 62.8858 0.0999994
      vertex 24.5 64 0.0999994
      vertex 24.5 63 0.0999994
    endloop
  endfacet
  facet normal 0 0 -1
    outer loop
      vertex 23.4393 62.5607 0.0999994
      vertex 24.5 64 0.0999994
      vertex 23.926 62.8858 0.0999994
    endloop
  endfacet
  facet normal 0 0 -1
    outer loop
      vertex 23.1142 60.926 0.0999994
      vertex -23 61.5 0.0999994
      vertex 23 61.5 0.0999994
    endloop
  endfacet
  facet normal 0 0 -1
    outer loop
      vertex 23 61.5 0.0999994
      vertex -23 61.5 0.0999994
      vertex 23.1142 62.074 0.0999994
    endloop
  endfacet
  facet normal 0 0 -1
    outer loop
      vertex -23.1142 62.074 0.0999994
      vertex 23.1142 62.074 0.0999994
      vertex -23 61.5 0.0999994
    endloop
  endfacet
  facet normal 0 0 -1
    outer loop
      vertex 23.1142 62.074 0.0999994
      vertex -23.1142 62.074 0.0999994
      vertex 23.4393 62.5607 0.0999994
    endloop
  endfacet
  facet normal 0 0 -1
    outer loop
      vertex -23.4393 62.5607 0.0999994
      vertex 23.4393 62.5607 0.0999994
      vertex -23.1142 62.074 0.0999994
    endloop
  endfacet
  facet normal 0 0 -1
    outer loop
      vertex 23.4393 62.5607 0.0999994
      vertex -23.4393 62.5607 0.0999994
      vertex 24.5 64 0.0999994
    endloop
  endfacet
  facet normal 0 0 -1
    outer loop
      vertex -24.5 64 0.0999994
      vertex -23.4393 62.5607 0.0999994
      vertex -23.926 62.8858 0.0999994
    endloop
  endfacet
  facet normal 0 0 -1
    outer loop
      vertex -24.5 64 0.0999994
      vertex -23.926 62.8858 0.0999994
      vertex -24.5 63 0.0999994
    endloop
  endfacet
  facet normal 0 0 -1
    outer loop
      vertex -23.4393 62.5607 0.0999994
      vertex -24.5 64 0.0999994
      vertex 24.5 64 0.0999994
    endloop
  endfacet
  facet normal 0 0 -1
    outer loop
      vertex -25.074 62.8858 0.0999994
      vertex -24.5 64 0.0999994
      vertex -24.5 63 0.0999994
    endloop
  endfacet
  facet normal 0 0 -1
    outer loop
      vertex -25.074 62.8858 0.0999994
      vertex -25.4567 63.8097 0.0999994
      vertex -24.5 64 0.0999994
    endloop
  endfacet
  facet normal 0 0 -1
    outer loop
      vertex -25.5607 62.5607 0.0999994
      vertex -25.4567 63.8097 0.0999994
      vertex -25.074 62.8858 0.0999994
    endloop
  endfacet
  facet normal 0 0 -1
    outer loop
      vertex -26.2678 63.2678 0.0999994
      vertex -25.5607 62.5607 0.0999994
      vertex -25.8858 62.074 0.0999994
    endloop
  endfacet
  facet normal 0 0 -1
    outer loop
      vertex -25.5607 62.5607 0.0999994
      vertex -26.2678 63.2678 0.0999994
      vertex -25.4567 63.8097 0.0999994
    endloop
  endfacet
  facet normal 0 0 -1
    outer loop
      vertex -26.8097 62.4567 0.0999994
      vertex -25.8858 62.074 0.0999994
      vertex -26 61.5 0.0999994
    endloop
  endfacet
  facet normal 0 0 -1
    outer loop
      vertex -25.5607 60.4393 0.0999994
      vertex -27 61.5 0.0999994
      vertex -25.8858 60.926 0.0999994
    endloop
  endfacet
  facet normal -0 0 -1
    outer loop
      vertex -26 3.5 0.0999994
      vertex -26.8097 2.54329 0.0999994
      vertex -27 3.5 0.0999994
    endloop
  endfacet
  facet normal 0 0 -1
    outer loop
      vertex -25.8858 60.926 0.0999994
      vertex -27 61.5 0.0999994
      vertex -26 61.5 0.0999994
    endloop
  endfacet
  facet normal 0 -0 -1
    outer loop
      vertex -26.8097 62.4567 0.0999994
      vertex -26 61.5 0.0999994
      vertex -27 61.5 0.0999994
    endloop
  endfacet
  facet normal 0 0 -1
    outer loop
      vertex -25.8858 62.074 0.0999994
      vertex -26.8097 62.4567 0.0999994
      vertex -26.2678 63.2678 0.0999994
    endloop
  endfacet
  facet normal 0 0 1
    outer loop
      vertex 22.7322 59.7322 0.849999
      vertex -22.7322 59.7322 0.849999
      vertex 22.7322 5.26777 0.849999
    endloop
  endfacet
  facet normal 0 0 1
    outer loop
      vertex 22.7322 5.26777 0.849999
      vertex -22.1903 4.45671 0.849999
      vertex -22 3.5 0.849999
    endloop
  endfacet
  facet normal 0 0 1
    outer loop
      vertex -22.7322 5.26777 0.849999
      vertex 22.7322 5.26777 0.849999
      vertex -22.7322 59.7322 0.849999
    endloop
  endfacet
  facet normal 0 0 1
    outer loop
      vertex 22.7322 5.26777 0.849999
      vertex -22.7322 5.26777 0.849999
      vertex -22.1903 4.45671 0.849999
    endloop
  endfacet
  facet normal -0 0 1
    outer loop
      vertex -23.5433 59.1903 0.849999
      vertex -22.7322 5.26777 0.849999
      vertex -22.7322 59.7322 0.849999
    endloop
  endfacet
  facet normal 0 0 1
    outer loop
      vertex -23.5433 59.1903 0.849999
      vertex -23.5433 5.8097 0.849999
      vertex -22.7322 5.26777 0.849999
    endloop
  endfacet
  facet normal -0 0 1
    outer loop
      vertex -24.5 59 0.849999
      vertex -23.5433 5.8097 0.849999
      vertex -23.5433 59.1903 0.849999
    endloop
  endfacet
  facet normal 0 0 1
    outer loop
      vertex -24.5 59 0.849999
      vertex -24.5 6 0.849999
      vertex -23.5433 5.8097 0.849999
    endloop
  endfacet
  facet normal 0 0 1
    outer loop
      vertex -25.4567 59.1903 0.849999
      vertex -24.5 6 0.849999
      vertex -24.5 59 0.849999
    endloop
  endfacet
  facet normal 0 0 1
    outer loop
      vertex -25.4567 59.1903 0.849999
      vertex -25.4567 5.8097 0.849999
      vertex -24.5 6 0.849999
    endloop
  endfacet
  facet normal 0 0 1
    outer loop
      vertex -26.2678 59.7322 0.849999
      vertex -25.4567 5.8097 0.849999
      vertex -25.4567 59.1903 0.849999
    endloop
  endfacet
  facet normal 0 0 1
    outer loop
      vertex -26.2678 59.7322 0.849999
      vertex -26.2678 5.26777 0.849999
      vertex -25.4567 5.8097 0.849999
    endloop
  endfacet
  facet normal 0 0 1
    outer loop
      vertex -26.8097 60.5433 0.849999
      vertex -26.2678 5.26777 0.849999
      vertex -26.2678 59.7322 0.849999
    endloop
  endfacet
  facet normal 0 0 1
    outer loop
      vertex -26.8097 60.5433 0.849999
      vertex -26.8097 4.45671 0.849999
      vertex -26.2678 5.26777 0.849999
    endloop
  endfacet
  facet normal 0 0 1
    outer loop
      vertex -27 61.5 0.849999
      vertex -26.8097 4.45671 0.849999
      vertex -26.8097 60.5433 0.849999
    endloop
  endfacet
  facet normal 0 0 1
    outer loop
      vertex -26.8097 4.45671 0.849999
      vertex -27 61.5 0.849999
      vertex -27 3.5 0.849999
    endloop
  endfacet
  facet normal 0 0 1
    outer loop
      vertex 22.7322 5.26777 0.849999
      vertex -22 3.5 0.849999
      vertex 22.1903 4.45671 0.849999
    endloop
  endfacet
  facet normal 0 0 1
    outer loop
      vertex 22.1903 62.4567 0.849999
      vertex -22 61.5 0.849999
      vertex 22 61.5 0.849999
    endloop
  endfacet
  facet normal 0 0 1
    outer loop
      vertex -22.1903 62.4567 0.849999
      vertex 22.1903 62.4567 0.849999
      vertex 22.7322 63.2678 0.849999
    endloop
  endfacet
  facet normal 0 0 1
    outer loop
      vertex -22.7322 63.2678 0.849999
      vertex 22.7322 63.2678 0.849999
      vertex 23.5433 63.8097 0.849999
    endloop
  endfacet
  facet normal 0 0 1
    outer loop
      vertex -23.5433 63.8097 0.849999
      vertex 23.5433 63.8097 0.849999
      vertex 24.5 64 0.849999
    endloop
  endfacet
  facet normal 0 0 1
    outer loop
      vertex 22.1903 62.4567 0.849999
      vertex -22.1903 62.4567 0.849999
      vertex -22 61.5 0.849999
    endloop
  endfacet
  facet normal 0 0 1
    outer loop
      vertex 22.7322 63.2678 0.849999
      vertex -22.7322 63.2678 0.849999
      vertex -22.1903 62.4567 0.849999
    endloop
  endfacet
  facet normal 0 0 1
    outer loop
      vertex 23.5433 63.8097 0.849999
      vertex -23.5433 63.8097 0.849999
      vertex -22.7322 63.2678 0.849999
    endloop
  endfacet
  facet normal 0 -0 1
    outer loop
      vertex -23.5433 63.8097 0.849999
      vertex 24.5 64 0.849999
      vertex -24.5 64 0.849999
    endloop
  endfacet
  facet normal -0 0 1
    outer loop
      vertex 26.8097 60.5433 0.849999
      vertex 27 3.5 0.849999
      vertex 27 61.5 0.849999
    endloop
  endfacet
  facet normal 0 0 1
    outer loop
      vertex 26.8097 60.5433 0.849999
      vertex 26.8097 4.45671 0.849999
      vertex 27 3.5 0.849999
    endloop
  endfacet
  facet normal -0 0 1
    outer loop
      vertex 26.2678 59.7322 0.849999
      vertex 26.8097 4.45671 0.849999
      vertex 26.8097 60.5433 0.849999
    endloop
  endfacet
  facet normal 0 0 1
    outer loop
      vertex 26.2678 59.7322 0.849999
      vertex 26.2678 5.26777 0.849999
      vertex 26.8097 4.45671 0.849999
    endloop
  endfacet
  facet normal -0 0 1
    outer loop
      vertex 25.4567 59.1903 0.849999
      vertex 26.2678 5.26777 0.849999
      vertex 26.2678 59.7322 0.849999
    endloop
  endfacet
  facet normal 0 0 1
    outer loop
      vertex 25.4567 59.1903 0.849999
      vertex 25.4567 5.8097 0.849999
      vertex 26.2678 5.26777 0.849999
    endloop
  endfacet
  facet normal -0 0 1
    outer loop
      vertex 24.5 59 0.849999
      vertex 25.4567 5.8097 0.849999
      vertex 25.4567 59.1903 0.849999
    endloop
  endfacet
  facet normal 0 0 1
    outer loop
      vertex 24.5 59 0.849999
      vertex 24.5 6 0.849999
      vertex 25.4567 5.8097 0.849999
    endloop
  endfacet
  facet normal 0 0 1
    outer loop
      vertex 23.5433 59.1903 0.849999
      vertex 24.5 6 0.849999
      vertex 24.5 59 0.849999
    endloop
  endfacet
  facet normal 0 0 1
    outer loop
      vertex 23.5433 59.1903 0.849999
      vertex 23.5433 5.8097 0.849999
      vertex 24.5 6 0.849999
    endloop
  endfacet
  facet normal 0 0 1
    outer loop
      vertex 22.7322 59.7322 0.849999
      vertex 23.5433 5.8097 0.849999
      vertex 23.5433 59.1903 0.849999
    endloop
  endfacet
  facet normal 0 0 1
    outer loop
      vertex 22.7322 59.7322 0.849999
      vertex 22.7322 5.26777 0.849999
      vertex 23.5433 5.8097 0.849999
    endloop
  endfacet
  facet normal 0 0 1
    outer loop
      vertex -22.1903 60.5433 0.849999
      vertex 22.1903 60.5433 0.849999
      vertex -22 61.5 0.849999
    endloop
  endfacet
  facet normal 0 0 1
    outer loop
      vertex 22.1903 60.5433 0.849999
      vertex -22.1903 60.5433 0.849999
      vertex 22.7322 59.7322 0.849999
    endloop
  endfacet
  facet normal -0 0 1
    outer loop
      vertex -22 61.5 0.849999
      vertex 22.1903 60.5433 0.849999
      vertex 22 61.5 0.849999
    endloop
  endfacet
  facet normal 0 0 1
    outer loop
      vertex -22.7322 59.7322 0.849999
      vertex 22.7322 59.7322 0.849999
      vertex -22.1903 60.5433 0.849999
    endloop
  endfacet
  facet normal 0 0 1
    outer loop
      vertex 22.1903 4.45671 0.849999
      vertex -22 3.5 0.849999
      vertex 22 3.5 0.849999
    endloop
  endfacet
  facet normal 0 0 1
    outer loop
      vertex 22 3.5 0.849999
      vertex -22 3.5 0.849999
      vertex 22.1903 2.54329 0.849999
    endloop
  endfacet
  facet normal 0 0 1
    outer loop
      vertex -22.1903 2.54329 0.849999
      vertex 22.1903 2.54329 0.849999
      vertex -22 3.5 0.849999
    endloop
  endfacet
  facet normal 0 0 1
    outer loop
      vertex 22.1903 2.54329 0.849999
      vertex -22.1903 2.54329 0.849999
      vertex 22.7322 1.73223 0.849999
    endloop
  endfacet
  facet normal 0 0 1
    outer loop
      vertex -22.7322 1.73223 0.849999
      vertex 22.7322 1.73223 0.849999
      vertex -22.1903 2.54329 0.849999
    endloop
  endfacet
  facet normal 0 0 1
    outer loop
      vertex 22.7322 1.73223 0.849999
      vertex -22.7322 1.73223 0.849999
      vertex 23.5433 1.1903 0.849999
    endloop
  endfacet
  facet normal 0 0 1
    outer loop
      vertex -23.5433 1.1903 0.849999
      vertex 23.5433 1.1903 0.849999
      vertex -22.7322 1.73223 0.849999
    endloop
  endfacet
  facet normal 0 0 1
    outer loop
      vertex 23.5433 1.1903 0.849999
      vertex -23.5433 1.1903 0.849999
      vertex 24.5 1 0.849999
    endloop
  endfacet
  facet normal 0 0 1
    outer loop
      vertex 24.5 1 0.849999
      vertex -23.5433 1.1903 0.849999
      vertex -24.5 1 0.849999
    endloop
  endfacet
  facet normal 0.195097 0.980784 -0
    outer loop
      vertex -24.5 2 0.0999994
      vertex -25.074 2.11418 3.1
      vertex -24.5 2 3.1
    endloop
  endfacet
  facet normal 0.195097 0.980784 0
    outer loop
      vertex -25.074 2.11418 3.1
      vertex -24.5 2 0.0999994
      vertex -25.074 2.11418 0.0999994
    endloop
  endfacet
  facet normal -0.831514 0.555504 0
    outer loop
      vertex -23.4393 2.43934 0.0999994
      vertex -23.1142 2.92597 3.1
      vertex -23.1142 2.92597 0.0999994
    endloop
  endfacet
  facet normal -0.831514 0.555504 0
    outer loop
      vertex -23.1142 2.92597 3.1
      vertex -23.4393 2.43934 0.0999994
      vertex -23.4393 2.43934 3.1
    endloop
  endfacet
  facet normal -0.831519 -0.555496 0
    outer loop
      vertex -23.1142 4.07402 0.0999994
      vertex -23.4393 4.56066 3.1
      vertex -23.4393 4.56066 0.0999994
    endloop
  endfacet
  facet normal -0.831519 -0.555496 0
    outer loop
      vertex -23.4393 4.56066 3.1
      vertex -23.1142 4.07402 0.0999994
      vertex -23.1142 4.07402 3.1
    endloop
  endfacet
  facet normal -0.980779 -0.195124 0
    outer loop
      vertex -23 3.5 0.0999994
      vertex -23.1142 4.07402 3.1
      vertex -23.1142 4.07402 0.0999994
    endloop
  endfacet
  facet normal -0.980779 -0.195124 0
    outer loop
      vertex -23.1142 4.07402 3.1
      vertex -23 3.5 0.0999994
      vertex -23 3.5 3.1
    endloop
  endfacet
  facet normal -0.55552 -0.831503 0
    outer loop
      vertex -23.926 4.88582 0.0999994
      vertex -23.4393 4.56066 3.1
      vertex -23.926 4.88582 3.1
    endloop
  endfacet
  facet normal -0.55552 -0.831503 -0
    outer loop
      vertex -23.4393 4.56066 3.1
      vertex -23.926 4.88582 0.0999994
      vertex -23.4393 4.56066 0.0999994
    endloop
  endfacet
  facet normal -0.195097 -0.980784 0
    outer loop
      vertex -24.5 5 0.0999994
      vertex -23.926 4.88582 3.1
      vertex -24.5 5 3.1
    endloop
  endfacet
  facet normal -0.195097 -0.980784 -0
    outer loop
      vertex -23.926 4.88582 3.1
      vertex -24.5 5 0.0999994
      vertex -23.926 4.88582 0.0999994
    endloop
  endfacet
  facet normal 0.980779 0.19512 0
    outer loop
      vertex -25.8858 2.92597 3.1
      vertex -26 3.5 0.0999994
      vertex -26 3.5 3.1
    endloop
  endfacet
  facet normal 0.980779 0.19512 0
    outer loop
      vertex -26 3.5 0.0999994
      vertex -25.8858 2.92597 3.1
      vertex -25.8858 2.92597 0.0999994
    endloop
  endfacet
  facet normal -0.55552 0.831503 0
    outer loop
      vertex -23.4393 2.43934 0.0999994
      vertex -23.926 2.11418 3.1
      vertex -23.4393 2.43934 3.1
    endloop
  endfacet
  facet normal -0.55552 0.831503 0
    outer loop
      vertex -23.926 2.11418 3.1
      vertex -23.4393 2.43934 0.0999994
      vertex -23.926 2.11418 0.0999994
    endloop
  endfacet
  facet normal 0.831519 -0.555496 0
    outer loop
      vertex -25.8858 4.07402 3.1
      vertex -25.5607 4.56066 0.0999994
      vertex -25.5607 4.56066 3.1
    endloop
  endfacet
  facet normal 0.831519 -0.555496 0
    outer loop
      vertex -25.5607 4.56066 0.0999994
      vertex -25.8858 4.07402 3.1
      vertex -25.8858 4.07402 0.0999994
    endloop
  endfacet
  facet normal 0.195097 -0.980784 0
    outer loop
      vertex -25.074 4.88582 0.0999994
      vertex -24.5 5 3.1
      vertex -25.074 4.88582 3.1
    endloop
  endfacet
  facet normal 0.195097 -0.980784 0
    outer loop
      vertex -24.5 5 3.1
      vertex -25.074 4.88582 0.0999994
      vertex -24.5 5 0.0999994
    endloop
  endfacet
  facet normal 0.55552 -0.831503 0
    outer loop
      vertex -25.5607 4.56066 0.0999994
      vertex -25.074 4.88582 3.1
      vertex -25.5607 4.56066 3.1
    endloop
  endfacet
  facet normal 0.55552 -0.831503 0
    outer loop
      vertex -25.074 4.88582 3.1
      vertex -25.5607 4.56066 0.0999994
      vertex -25.074 4.88582 0.0999994
    endloop
  endfacet
  facet normal -0.980779 0.19512 0
    outer loop
      vertex -23.1142 2.92597 0.0999994
      vertex -23 3.5 3.1
      vertex -23 3.5 0.0999994
    endloop
  endfacet
  facet normal -0.980779 0.19512 0
    outer loop
      vertex -23 3.5 3.1
      vertex -23.1142 2.92597 0.0999994
      vertex -23.1142 2.92597 3.1
    endloop
  endfacet
  facet normal 0.980779 -0.195124 0
    outer loop
      vertex -26 3.5 3.1
      vertex -25.8858 4.07402 0.0999994
      vertex -25.8858 4.07402 3.1
    endloop
  endfacet
  facet normal 0.980779 -0.195124 0
    outer loop
      vertex -25.8858 4.07402 0.0999994
      vertex -26 3.5 3.1
      vertex -26 3.5 0.0999994
    endloop
  endfacet
  facet normal 0.831514 0.555504 0
    outer loop
      vertex -25.5607 2.43934 3.1
      vertex -25.8858 2.92597 0.0999994
      vertex -25.8858 2.92597 3.1
    endloop
  endfacet
  facet normal 0.831514 0.555504 0
    outer loop
      vertex -25.8858 2.92597 0.0999994
      vertex -25.5607 2.43934 3.1
      vertex -25.5607 2.43934 0.0999994
    endloop
  endfacet
  facet normal -0.195097 0.980784 0
    outer loop
      vertex -23.926 2.11418 0.0999994
      vertex -24.5 2 3.1
      vertex -23.926 2.11418 3.1
    endloop
  endfacet
  facet normal -0.195097 0.980784 0
    outer loop
      vertex -24.5 2 3.1
      vertex -23.926 2.11418 0.0999994
      vertex -24.5 2 0.0999994
    endloop
  endfacet
  facet normal 0.55552 0.831503 -0
    outer loop
      vertex -25.074 2.11418 0.0999994
      vertex -25.5607 2.43934 3.1
      vertex -25.074 2.11418 3.1
    endloop
  endfacet
  facet normal 0.55552 0.831503 0
    outer loop
      vertex -25.5607 2.43934 3.1
      vertex -25.074 2.11418 0.0999994
      vertex -25.5607 2.43934 0.0999994
    endloop
  endfacet
  facet normal 0.195097 0.980784 -0
    outer loop
      vertex 24.5 2 0.0999994
      vertex 23.926 2.11418 3.1
      vertex 24.5 2 3.1
    endloop
  endfacet
  facet normal 0.195097 0.980784 0
    outer loop
      vertex 23.926 2.11418 3.1
      vertex 24.5 2 0.0999994
      vertex 23.926 2.11418 0.0999994
    endloop
  endfacet
  facet normal -0.831514 0.555504 0
    outer loop
      vertex 25.5607 2.43934 0.0999994
      vertex 25.8858 2.92597 3.1
      vertex 25.8858 2.92597 0.0999994
    endloop
  endfacet
  facet normal -0.831514 0.555504 0
    outer loop
      vertex 25.8858 2.92597 3.1
      vertex 25.5607 2.43934 0.0999994
      vertex 25.5607 2.43934 3.1
    endloop
  endfacet
  facet normal -0.831519 -0.555496 0
    outer loop
      vertex 25.8858 4.07402 0.0999994
      vertex 25.5607 4.56066 3.1
      vertex 25.5607 4.56066 0.0999994
    endloop
  endfacet
  facet normal -0.831519 -0.555496 0
    outer loop
      vertex 25.5607 4.56066 3.1
      vertex 25.8858 4.07402 0.0999994
      vertex 25.8858 4.07402 3.1
    endloop
  endfacet
  facet normal -0.980779 -0.195124 0
    outer loop
      vertex 26 3.5 0.0999994
      vertex 25.8858 4.07402 3.1
      vertex 25.8858 4.07402 0.0999994
    endloop
  endfacet
  facet normal -0.980779 -0.195124 0
    outer loop
      vertex 25.8858 4.07402 3.1
      vertex 26 3.5 0.0999994
      vertex 26 3.5 3.1
    endloop
  endfacet
  facet normal -0.55552 -0.831503 0
    outer loop
      vertex 25.074 4.88582 0.0999994
      vertex 25.5607 4.56066 3.1
      vertex 25.074 4.88582 3.1
    endloop
  endfacet
  facet normal -0.55552 -0.831503 -0
    outer loop
      vertex 25.5607 4.56066 3.1
      vertex 25.074 4.88582 0.0999994
      vertex 25.5607 4.56066 0.0999994
    endloop
  endfacet
  facet normal -0.195097 -0.980784 0
    outer loop
      vertex 24.5 5 0.0999994
      vertex 25.074 4.88582 3.1
      vertex 24.5 5 3.1
    endloop
  endfacet
  facet normal -0.195097 -0.980784 -0
    outer loop
      vertex 25.074 4.88582 3.1
      vertex 24.5 5 0.0999994
      vertex 25.074 4.88582 0.0999994
    endloop
  endfacet
  facet normal 0.980779 0.19512 0
    outer loop
      vertex 23.1142 2.92597 3.1
      vertex 23 3.5 0.0999994
      vertex 23 3.5 3.1
    endloop
  endfacet
  facet normal 0.980779 0.19512 0
    outer loop
      vertex 23 3.5 0.0999994
      vertex 23.1142 2.92597 3.1
      vertex 23.1142 2.92597 0.0999994
    endloop
  endfacet
  facet normal -0.55552 0.831503 0
    outer loop
      vertex 25.5607 2.43934 0.0999994
      vertex 25.074 2.11418 3.1
      vertex 25.5607 2.43934 3.1
    endloop
  endfacet
  facet normal -0.55552 0.831503 0
    outer loop
      vertex 25.074 2.11418 3.1
      vertex 25.5607 2.43934 0.0999994
      vertex 25.074 2.11418 0.0999994
    endloop
  endfacet
  facet normal 0.831519 -0.555496 0
    outer loop
      vertex 23.1142 4.07402 3.1
      vertex 23.4393 4.56066 0.0999994
      vertex 23.4393 4.56066 3.1
    endloop
  endfacet
  facet normal 0.831519 -0.555496 0
    outer loop
      vertex 23.4393 4.56066 0.0999994
      vertex 23.1142 4.07402 3.1
      vertex 23.1142 4.07402 0.0999994
    endloop
  endfacet
  facet normal 0.195097 -0.980784 0
    outer loop
      vertex 23.926 4.88582 0.0999994
      vertex 24.5 5 3.1
      vertex 23.926 4.88582 3.1
    endloop
  endfacet
  facet normal 0.195097 -0.980784 0
    outer loop
      vertex 24.5 5 3.1
      vertex 23.926 4.88582 0.0999994
      vertex 24.5 5 0.0999994
    endloop
  endfacet
  facet normal 0.55552 -0.831503 0
    outer loop
      vertex 23.4393 4.56066 0.0999994
      vertex 23.926 4.88582 3.1
      vertex 23.4393 4.56066 3.1
    endloop
  endfacet
  facet normal 0.55552 -0.831503 0
    outer loop
      vertex 23.926 4.88582 3.1
      vertex 23.4393 4.56066 0.0999994
      vertex 23.926 4.88582 0.0999994
    endloop
  endfacet
  facet normal -0.980779 0.19512 0
    outer loop
      vertex 25.8858 2.92597 0.0999994
      vertex 26 3.5 3.1
      vertex 26 3.5 0.0999994
    endloop
  endfacet
  facet normal -0.980779 0.19512 0
    outer loop
      vertex 26 3.5 3.1
      vertex 25.8858 2.92597 0.0999994
      vertex 25.8858 2.92597 3.1
    endloop
  endfacet
  facet normal 0.980779 -0.195124 0
    outer loop
      vertex 23 3.5 3.1
      vertex 23.1142 4.07402 0.0999994
      vertex 23.1142 4.07402 3.1
    endloop
  endfacet
  facet normal 0.980779 -0.195124 0
    outer loop
      vertex 23.1142 4.07402 0.0999994
      vertex 23 3.5 3.1
      vertex 23 3.5 0.0999994
    endloop
  endfacet
  facet normal 0.831514 0.555504 0
    outer loop
      vertex 23.4393 2.43934 3.1
      vertex 23.1142 2.92597 0.0999994
      vertex 23.1142 2.92597 3.1
    endloop
  endfacet
  facet normal 0.831514 0.555504 0
    outer loop
      vertex 23.1142 2.92597 0.0999994
      vertex 23.4393 2.43934 3.1
      vertex 23.4393 2.43934 0.0999994
    endloop
  endfacet
  facet normal -0.195097 0.980784 0
    outer loop
      vertex 25.074 2.11418 0.0999994
      vertex 24.5 2 3.1
      vertex 25.074 2.11418 3.1
    endloop
  endfacet
  facet normal -0.195097 0.980784 0
    outer loop
      vertex 24.5 2 3.1
      vertex 25.074 2.11418 0.0999994
      vertex 24.5 2 0.0999994
    endloop
  endfacet
  facet normal 0.55552 0.831503 -0
    outer loop
      vertex 23.926 2.11418 0.0999994
      vertex 23.4393 2.43934 3.1
      vertex 23.926 2.11418 3.1
    endloop
  endfacet
  facet normal 0.55552 0.831503 0
    outer loop
      vertex 23.4393 2.43934 3.1
      vertex 23.926 2.11418 0.0999994
      vertex 23.4393 2.43934 0.0999994
    endloop
  endfacet
  facet normal 0.19513 0.980777 -0
    outer loop
      vertex -24.5 60 0.0999994
      vertex -25.074 60.1142 3.1
      vertex -24.5 60 3.1
    endloop
  endfacet
  facet normal 0.19513 0.980777 0
    outer loop
      vertex -25.074 60.1142 3.1
      vertex -24.5 60 0.0999994
      vertex -25.074 60.1142 0.0999994
    endloop
  endfacet
  facet normal -0.831551 0.555449 0
    outer loop
      vertex -23.4393 60.4393 0.0999994
      vertex -23.1142 60.926 3.1
      vertex -23.1142 60.926 0.0999994
    endloop
  endfacet
  facet normal -0.831551 0.555449 0
    outer loop
      vertex -23.1142 60.926 3.1
      vertex -23.4393 60.4393 0.0999994
      vertex -23.4393 60.4393 3.1
    endloop
  endfacet
  facet normal -0.831551 -0.555449 0
    outer loop
      vertex -23.1142 62.074 0.0999994
      vertex -23.4393 62.5607 3.1
      vertex -23.4393 62.5607 0.0999994
    endloop
  endfacet
  facet normal -0.831551 -0.555449 0
    outer loop
      vertex -23.4393 62.5607 3.1
      vertex -23.1142 62.074 0.0999994
      vertex -23.1142 62.074 3.1
    endloop
  endfacet
  facet normal -0.980777 -0.19513 0
    outer loop
      vertex -23 61.5 0.0999994
      vertex -23.1142 62.074 3.1
      vertex -23.1142 62.074 0.0999994
    endloop
  endfacet
  facet normal -0.980777 -0.19513 0
    outer loop
      vertex -23.1142 62.074 3.1
      vertex -23 61.5 0.0999994
      vertex -23 61.5 3.1
    endloop
  endfacet
  facet normal -0.555449 -0.831551 0
    outer loop
      vertex -23.926 62.8858 0.0999994
      vertex -23.4393 62.5607 3.1
      vertex -23.926 62.8858 3.1
    endloop
  endfacet
  facet normal -0.555449 -0.831551 -0
    outer loop
      vertex -23.4393 62.5607 3.1
      vertex -23.926 62.8858 0.0999994
      vertex -23.4393 62.5607 0.0999994
    endloop
  endfacet
  facet normal -0.19513 -0.980777 0
    outer loop
      vertex -24.5 63 0.0999994
      vertex -23.926 62.8858 3.1
      vertex -24.5 63 3.1
    endloop
  endfacet
  facet normal -0.19513 -0.980777 -0
    outer loop
      vertex -23.926 62.8858 3.1
      vertex -24.5 63 0.0999994
      vertex -23.926 62.8858 0.0999994
    endloop
  endfacet
  facet normal 0.980777 0.19513 0
    outer loop
      vertex -25.8858 60.926 3.1
      vertex -26 61.5 0.0999994
      vertex -26 61.5 3.1
    endloop
  endfacet
  facet normal 0.980777 0.19513 0
    outer loop
      vertex -26 61.5 0.0999994
      vertex -25.8858 60.926 3.1
      vertex -25.8858 60.926 0.0999994
    endloop
  endfacet
  facet normal -0.555449 0.831551 0
    outer loop
      vertex -23.4393 60.4393 0.0999994
      vertex -23.926 60.1142 3.1
      vertex -23.4393 60.4393 3.1
    endloop
  endfacet
  facet normal -0.555449 0.831551 0
    outer loop
      vertex -23.926 60.1142 3.1
      vertex -23.4393 60.4393 0.0999994
      vertex -23.926 60.1142 0.0999994
    endloop
  endfacet
  facet normal 0.831551 -0.555449 0
    outer loop
      vertex -25.8858 62.074 3.1
      vertex -25.5607 62.5607 0.0999994
      vertex -25.5607 62.5607 3.1
    endloop
  endfacet
  facet normal 0.831551 -0.555449 0
    outer loop
      vertex -25.5607 62.5607 0.0999994
      vertex -25.8858 62.074 3.1
      vertex -25.8858 62.074 0.0999994
    endloop
  endfacet
  facet normal 0.19513 -0.980777 0
    outer loop
      vertex -25.074 62.8858 0.0999994
      vertex -24.5 63 3.1
      vertex -25.074 62.8858 3.1
    endloop
  endfacet
  facet normal 0.19513 -0.980777 0
    outer loop
      vertex -24.5 63 3.1
      vertex -25.074 62.8858 0.0999994
      vertex -24.5 63 0.0999994
    endloop
  endfacet
  facet normal 0.555449 -0.831551 0
    outer loop
      vertex -25.5607 62.5607 0.0999994
      vertex -25.074 62.8858 3.1
      vertex -25.5607 62.5607 3.1
    endloop
  endfacet
  facet normal 0.555449 -0.831551 0
    outer loop
      vertex -25.074 62.8858 3.1
      vertex -25.5607 62.5607 0.0999994
      vertex -25.074 62.8858 0.0999994
    endloop
  endfacet
  facet normal -0.980777 0.19513 0
    outer loop
      vertex -23.1142 60.926 0.0999994
      vertex -23 61.5 3.1
      vertex -23 61.5 0.0999994
    endloop
  endfacet
  facet normal -0.980777 0.19513 0
    outer loop
      vertex -23 61.5 3.1
      vertex -23.1142 60.926 0.0999994
      vertex -23.1142 60.926 3.1
    endloop
  endfacet
  facet normal 0.980777 -0.19513 0
    outer loop
      vertex -26 61.5 3.1
      vertex -25.8858 62.074 0.0999994
      vertex -25.8858 62.074 3.1
    endloop
  endfacet
  facet normal 0.980777 -0.19513 0
    outer loop
      vertex -25.8858 62.074 0.0999994
      vertex -26 61.5 3.1
      vertex -26 61.5 0.0999994
    endloop
  endfacet
  facet normal 0.831551 0.555449 0
    outer loop
      vertex -25.5607 60.4393 3.1
      vertex -25.8858 60.926 0.0999994
      vertex -25.8858 60.926 3.1
    endloop
  endfacet
  facet normal 0.831551 0.555449 0
    outer loop
      vertex -25.8858 60.926 0.0999994
      vertex -25.5607 60.4393 3.1
      vertex -25.5607 60.4393 0.0999994
    endloop
  endfacet
  facet normal -0.19513 0.980777 0
    outer loop
      vertex -23.926 60.1142 0.0999994
      vertex -24.5 60 3.1
      vertex -23.926 60.1142 3.1
    endloop
  endfacet
  facet normal -0.19513 0.980777 0
    outer loop
      vertex -24.5 60 3.1
      vertex -23.926 60.1142 0.0999994
      vertex -24.5 60 0.0999994
    endloop
  endfacet
  facet normal 0.555449 0.831551 -0
    outer loop
      vertex -25.074 60.1142 0.0999994
      vertex -25.5607 60.4393 3.1
      vertex -25.074 60.1142 3.1
    endloop
  endfacet
  facet normal 0.555449 0.831551 0
    outer loop
      vertex -25.5607 60.4393 3.1
      vertex -25.074 60.1142 0.0999994
      vertex -25.5607 60.4393 0.0999994
    endloop
  endfacet
  facet normal 0.19513 0.980777 -0
    outer loop
      vertex 24.5 60 0.0999994
      vertex 23.926 60.1142 3.1
      vertex 24.5 60 3.1
    endloop
  endfacet
  facet normal 0.19513 0.980777 0
    outer loop
      vertex 23.926 60.1142 3.1
      vertex 24.5 60 0.0999994
      vertex 23.926 60.1142 0.0999994
    endloop
  endfacet
  facet normal -0.831551 0.555449 0
    outer loop
      vertex 25.5607 60.4393 0.0999994
      vertex 25.8858 60.926 3.1
      vertex 25.8858 60.926 0.0999994
    endloop
  endfacet
  facet normal -0.831551 0.555449 0
    outer loop
      vertex 25.8858 60.926 3.1
      vertex 25.5607 60.4393 0.0999994
      vertex 25.5607 60.4393 3.1
    endloop
  endfacet
  facet normal -0.831551 -0.555449 0
    outer loop
      vertex 25.8858 62.074 0.0999994
      vertex 25.5607 62.5607 3.1
      vertex 25.5607 62.5607 0.0999994
    endloop
  endfacet
  facet normal -0.831551 -0.555449 0
    outer loop
      vertex 25.5607 62.5607 3.1
      vertex 25.8858 62.074 0.0999994
      vertex 25.8858 62.074 3.1
    endloop
  endfacet
  facet normal -0.980777 -0.19513 0
    outer loop
      vertex 26 61.5 0.0999994
      vertex 25.8858 62.074 3.1
      vertex 25.8858 62.074 0.0999994
    endloop
  endfacet
  facet normal -0.980777 -0.19513 0
    outer loop
      vertex 25.8858 62.074 3.1
      vertex 26 61.5 0.0999994
      vertex 26 61.5 3.1
    endloop
  endfacet
  facet normal -0.555449 -0.831551 0
    outer loop
      vertex 25.074 62.8858 0.0999994
      vertex 25.5607 62.5607 3.1
      vertex 25.074 62.8858 3.1
    endloop
  endfacet
  facet normal -0.555449 -0.831551 -0
    outer loop
      vertex 25.5607 62.5607 3.1
      vertex 25.074 62.8858 0.0999994
      vertex 25.5607 62.5607 0.0999994
    endloop
  endfacet
  facet normal -0.19513 -0.980777 0
    outer loop
      vertex 24.5 63 0.0999994
      vertex 25.074 62.8858 3.1
      vertex 24.5 63 3.1
    endloop
  endfacet
  facet normal -0.19513 -0.980777 -0
    outer loop
      vertex 25.074 62.8858 3.1
      vertex 24.5 63 0.0999994
      vertex 25.074 62.8858 0.0999994
    endloop
  endfacet
  facet normal 0.980777 0.19513 0
    outer loop
      vertex 23.1142 60.926 3.1
      vertex 23 61.5 0.0999994
      vertex 23 61.5 3.1
    endloop
  endfacet
  facet normal 0.980777 0.19513 0
    outer loop
      vertex 23 61.5 0.0999994
      vertex 23.1142 60.926 3.1
      vertex 23.1142 60.926 0.0999994
    endloop
  endfacet
  facet normal -0.555449 0.831551 0
    outer loop
      vertex 25.5607 60.4393 0.0999994
      vertex 25.074 60.1142 3.1
      vertex 25.5607 60.4393 3.1
    endloop
  endfacet
  facet normal -0.555449 0.831551 0
    outer loop
      vertex 25.074 60.1142 3.1
      vertex 25.5607 60.4393 0.0999994
      vertex 25.074 60.1142 0.0999994
    endloop
  endfacet
  facet normal 0.831551 -0.555449 0
    outer loop
      vertex 23.1142 62.074 3.1
      vertex 23.4393 62.5607 0.0999994
      vertex 23.4393 62.5607 3.1
    endloop
  endfacet
  facet normal 0.831551 -0.555449 0
    outer loop
      vertex 23.4393 62.5607 0.0999994
      vertex 23.1142 62.074 3.1
      vertex 23.1142 62.074 0.0999994
    endloop
  endfacet
  facet normal 0.19513 -0.980777 0
    outer loop
      vertex 23.926 62.8858 0.0999994
      vertex 24.5 63 3.1
      vertex 23.926 62.8858 3.1
    endloop
  endfacet
  facet normal 0.19513 -0.980777 0
    outer loop
      vertex 24.5 63 3.1
      vertex 23.926 62.8858 0.0999994
      vertex 24.5 63 0.0999994
    endloop
  endfacet
  facet normal 0.555449 -0.831551 0
    outer loop
      vertex 23.4393 62.5607 0.0999994
      vertex 23.926 62.8858 3.1
      vertex 23.4393 62.5607 3.1
    endloop
  endfacet
  facet normal 0.555449 -0.831551 0
    outer loop
      vertex 23.926 62.8858 3.1
      vertex 23.4393 62.5607 0.0999994
      vertex 23.926 62.8858 0.0999994
    endloop
  endfacet
  facet normal -0.980777 0.19513 0
    outer loop
      vertex 25.8858 60.926 0.0999994
      vertex 26 61.5 3.1
      vertex 26 61.5 0.0999994
    endloop
  endfacet
  facet normal -0.980777 0.19513 0
    outer loop
      vertex 26 61.5 3.1
      vertex 25.8858 60.926 0.0999994
      vertex 25.8858 60.926 3.1
    endloop
  endfacet
  facet normal 0.980777 -0.19513 0
    outer loop
      vertex 23 61.5 3.1
      vertex 23.1142 62.074 0.0999994
      vertex 23.1142 62.074 3.1
    endloop
  endfacet
  facet normal 0.980777 -0.19513 0
    outer loop
      vertex 23.1142 62.074 0.0999994
      vertex 23 61.5 3.1
      vertex 23 61.5 0.0999994
    endloop
  endfacet
  facet normal 0.831551 0.555449 0
    outer loop
      vertex 23.4393 60.4393 3.1
      vertex 23.1142 60.926 0.0999994
      vertex 23.1142 60.926 3.1
    endloop
  endfacet
  facet normal 0.831551 0.555449 0
    outer loop
      vertex 23.1142 60.926 0.0999994
      vertex 23.4393 60.4393 3.1
      vertex 23.4393 60.4393 0.0999994
    endloop
  endfacet
  facet normal -0.19513 0.980777 0
    outer loop
      vertex 25.074 60.1142 0.0999994
      vertex 24.5 60 3.1
      vertex 25.074 60.1142 3.1
    endloop
  endfacet
  facet normal -0.19513 0.980777 0
    outer loop
      vertex 24.5 60 3.1
      vertex 25.074 60.1142 0.0999994
      vertex 24.5 60 0.0999994
    endloop
  endfacet
  facet normal 0.555449 0.831551 -0
    outer loop
      vertex 23.926 60.1142 0.0999994
      vertex 23.4393 60.4393 3.1
      vertex 23.926 60.1142 3.1
    endloop
  endfacet
  facet normal 0.555449 0.831551 0
    outer loop
      vertex 23.4393 60.4393 3.1
      vertex 23.926 60.1142 0.0999994
      vertex 23.4393 60.4393 0.0999994
    endloop
  endfacet
endsolid OpenSCAD_Model
